<?xml version="1.0" standalone="no"?>
<!DOCTYPE svg PUBLIC "-//W3C//DTD SVG 20010904//EN"
 "http://www.w3.org/TR/2001/REC-SVG-20010904/DTD/svg10.dtd">
<svg version="1.0" xmlns="http://www.w3.org/2000/svg"
 width="810.000000pt" height="1280.000000pt" viewBox="0 0 810.000000 1280.000000"
 preserveAspectRatio="xMidYMid meet">
<metadata>
Created by potrace 1.15, written by Peter Selinger 2001-2017
</metadata>
<g transform="translate(0.000000,1280.000000) scale(0.100000,-0.100000)"
fill="#000000" stroke="none">
<path d="M1682 12780 c-138 -50 -419 -234 -492 -324 -22 -26 -25 -40 -25 -101
1 -90 29 -151 195 -420 281 -457 1233 -1949 1488 -2333 250 -377 435 -579 862
-942 85 -72 172 -152 194 -178 21 -26 95 -132 166 -237 181 -271 2248 -3504
3212 -5025 625 -986 586 -930 647 -930 48 1 110 30 145 70 l29 33 -28 56 c-63
130 -241 411 -3333 5253 l-610 956 -37 149 c-156 625 -297 942 -707 1583 -19
30 -244 384 -500 785 -826 1298 -1011 1570 -1090 1611 -35 18 -52 17 -116 -6z"/>
<path d="M405 11896 c-245 -64 -373 -123 -395 -182 -27 -69 -7 -159 249 -1114
300 -1123 580 -2132 641 -2305 83 -234 256 -572 432 -845 55 -85 113 -176 129
-201 31 -50 21 -14 859 -3084 517 -1897 630 -2310 840 -3085 220 -810 231
-852 261 -947 16 -51 36 -99 45 -107 38 -39 156 -27 204 20 20 19 25 34 23 67
-2 62 41 -99 -552 2065 -417 1518 -595 2170 -969 3542 l-400 1465 -6 460 c-6
462 -14 613 -42 780 -29 174 -293 1173 -619 2350 -274 986 -295 1052 -361
1116 -34 33 -38 34 -122 37 -72 2 -109 -4 -217 -32z"/>
</g>
</svg>
