<?xml version="1.0" encoding="UTF-8" standalone="no"?>
<svg
   xmlns:dc="http://purl.org/dc/elements/1.1/"
   xmlns:cc="http://creativecommons.org/ns#"
   xmlns:rdf="http://www.w3.org/1999/02/22-rdf-syntax-ns#"
   xmlns:svg="http://www.w3.org/2000/svg"
   xmlns="http://www.w3.org/2000/svg"
   xmlns:sodipodi="http://sodipodi.sourceforge.net/DTD/sodipodi-0.dtd"
   xmlns:inkscape="http://www.inkscape.org/namespaces/inkscape"
   version="1.0"
   width="700pt"
   height="200pt"
   viewBox="0 0 700 200"
   preserveAspectRatio="xMidYMid meet"
   id="svg66"
   sodipodi:docname="logonew.svg"
   inkscape:version="0.92.4 (5da689c313, 2019-01-14)">
  <defs
     id="defs70">
    <meshgradient
       inkscape:collect="always"
       id="meshgradient3874"
       gradientUnits="userSpaceOnUse"
       x="652.77118"
       y="267.43326"
       gradientTransform="matrix(0.39425521,0,0,0.30637283,159.12821,-6.4989782)">
      <meshrow
         id="meshrow3876">
        <meshpatch
           id="meshpatch3878">
          <stop
             path="c 3.18328,0  6.36657,0  9.54985,0"
             style="stop-color:#ffffff;stop-opacity:1"
             id="stop3880" />
          <stop
             path="c 0,6.0805  0,12.161  0,18.2415"
             style="stop-color:#0088aa;stop-opacity:1"
             id="stop3882" />
          <stop
             path="c -3.18328,0  -6.36657,0  -9.54985,0"
             style="stop-color:#ffffff;stop-opacity:1"
             id="stop3884" />
          <stop
             path="c 0,-6.0805  0,-12.161  0,-18.2415"
             style="stop-color:#0088aa;stop-opacity:1"
             id="stop3886" />
        </meshpatch>
      </meshrow>
    </meshgradient>
  </defs>
  <sodipodi:namedview
     pagecolor="#ffffff"
     bordercolor="#666666"
     borderopacity="1"
     objecttolerance="10"
     gridtolerance="10"
     guidetolerance="10"
     inkscape:pageopacity="0"
     inkscape:pageshadow="2"
     inkscape:window-width="2560"
     inkscape:window-height="1016"
     id="namedview68"
     showgrid="false"
     inkscape:zoom="0.953584"
     inkscape:cx="575.89333"
     inkscape:cy="299.05705"
     inkscape:window-x="0"
     inkscape:window-y="27"
     inkscape:window-maximized="1"
     inkscape:current-layer="svg66" />
  <metadata
     id="metadata2">
Created by potrace 1.12, written by Peter Selinger 2001-2015
<rdf:RDF>
  <cc:Work
     rdf:about="">
    <dc:format>image/svg+xml</dc:format>
    <dc:type
       rdf:resource="http://purl.org/dc/dcmitype/StillImage" />
    <dc:title></dc:title>
  </cc:Work>
</rdf:RDF>
</metadata>
  <g
     transform="matrix(0.05256736,0,0,-0.04084971,163.67612,206.35557)"
     id="g64"
     style="fill:#000000;stroke:none">
    <path
       d="m 1113,4817 c -12,-14 -38,-153 -52,-277 -10,-80 -25,-221 -54,-490 l -12,-115 -70,-12 c -38,-7 -104,-17 -145,-22 -41,-6 -176,-27 -300,-46 -124,-20 -248,-38 -277,-42 -30,-3 -58,-13 -66,-22 -13,-15 -23,-63 -73,-329 -17,-91 -17,-94 2,-111 10,-10 66,-31 124,-46 258,-70 470,-182 644,-338 l 76,-68 v -67 c 0,-37 -5,-119 -10,-182 -38,-451 -59,-1400 -33,-1446 18,-31 59,-34 517,-34 510,1 1107,17 1896,50 363,16 585,16 665,2 91,-16 291,-49 380,-62 39,-5 144,-21 235,-34 247,-37 359,-53 530,-76 85,-11 184,-25 220,-31 36,-6 101,-15 145,-20 44,-4 123,-13 175,-19 373,-41 497,-48 544,-30 19,7 29,22 40,62 13,46 31,190 39,298 2,28 7,36 25,38 12,2 22,6 22,10 0,4 7,45 15,92 28,158 116,674 125,735 11,70 53,323 75,445 8,47 31,184 50,305 20,121 45,276 56,344 14,90 17,127 9,135 -6,6 -73,31 -148,56 l -137,45 -5,425 c -5,433 -8,459 -44,473 -42,16 -163,18 -423,8 -441,-18 -1349,-73 -1823,-112 -63,-5 -181,-14 -263,-20 l -147,-11 -138,32 c -75,18 -189,45 -252,60 -202,50 -1009,237 -1230,285 -350,75 -569,120 -705,144 -175,31 -192,32 -202,18 z m 247,-73 c 292,-53 1102,-233 1878,-417 153,-37 152,-41 -10,-57 -139,-14 -130,-16 -378,44 -640,155 -1483,336 -1562,336 -42,0 -49,-3 -61,-27 -14,-27 -30,-148 -62,-467 -9,-82 -20,-155 -26,-163 -15,-18 -78,-17 -85,1 -13,34 72,744 93,779 5,9 10,8 213,-29 z m 235,-194 c 77,-14 428,-92 770,-170 171,-39 394,-90 497,-113 104,-23 188,-45 188,-48 0,-3 -42,-9 -92,-13 -51,-3 -126,-11 -165,-16 -40,-6 -106,-14 -145,-20 -446,-60 -604,-82 -1138,-160 -113,-17 -229,-34 -258,-39 -29,-4 -55,-5 -57,-1 -3,4 -1,43 5,86 5,44 14,129 20,189 15,148 41,359 45,366 2,3 66,-8 142,-23 76,-16 161,-33 188,-38 z m 4687,-192 c 27,-47 13,-1432 -22,-2153 -27,-568 -50,-922 -65,-1040 -17,-124 -28,-166 -47,-176 -32,-17 -410,20 -1018,100 -133,18 -690,99 -860,126 -52,8 -169,27 -260,41 -386,59 -550,85 -630,100 -47,8 -218,37 -380,64 -162,27 -335,57 -385,65 -49,9 -139,25 -200,35 -60,10 -144,25 -185,34 -41,8 -115,22 -165,31 -49,9 -142,27 -205,40 -63,13 -151,31 -195,40 -238,47 -370,87 -385,114 -7,15 -22,105 -61,381 -53,378 -112,555 -237,712 -124,154 -252,254 -453,353 -107,53 -369,145 -411,145 -19,0 -20,4 -14,53 17,129 63,331 76,338 8,4 53,12 100,19 47,6 110,16 140,21 63,10 402,61 595,90 72,10 175,25 230,34 55,8 147,22 205,30 58,9 182,27 275,40 94,14 206,30 250,36 44,6 121,17 170,25 84,12 301,42 475,64 41,5 125,16 185,24 261,35 533,64 810,86 1102,87 2068,146 2452,149 200,1 202,1 215,-21 z M 3480,4250 c 0,-5 -24,-10 -52,-10 -38,0 -49,3 -38,10 20,13 90,13 90,0 z m 47,4 c -3,-3 -12,-4 -19,-1 -8,3 -5,6 6,6 11,1 17,-2 13,-5 z m -167,-14 c 0,-5 -17,-10 -37,-10 -28,0 -34,3 -23,10 20,13 60,13 60,0 z m -110,-10 c 0,-5 -14,-10 -31,-10 -17,0 -28,4 -24,10 3,6 17,10 31,10 13,0 24,-4 24,-10 z m -80,-10 c 0,-5 -21,-10 -47,-9 -39,1 -43,2 -23,9 36,12 70,12 70,0 z M 1170,3950 c 0,-5 -4,-10 -10,-10 -5,0 -10,5 -10,10 0,6 5,10 10,10 6,0 10,-4 10,-10 z m -40,-10 c 0,-5 -14,-10 -31,-10 -17,0 -28,4 -24,10 3,6 17,10 31,10 13,0 24,-4 24,-10 z m -80,-10 c 0,-5 -4,-10 -10,-10 -5,0 -10,5 -10,10 0,6 5,10 10,10 6,0 10,-4 10,-10 z m 5285,-525 c 0,-36 -3,-65 -7,-65 -5,0 -8,29 -8,65 0,36 3,65 8,65 4,0 7,-29 7,-65 z m 150,15 c 49,-17 92,-33 97,-38 4,-4 -10,-117 -32,-252 -56,-356 -212,-1284 -216,-1289 -15,-16 -15,51 0,381 11,234 22,392 31,423 8,28 35,180 61,338 52,321 52,324 -13,354 -31,15 -39,24 -41,51 -4,37 3,62 16,62 4,0 48,-14 97,-30 z m -89,-125 c 26,-11 34,-19 30,-32 -3,-10 -7,-34 -10,-53 -10,-64 -76,-483 -91,-580 -9,-52 -17,-113 -19,-135 -1,-22 -3,-4 -4,40 -1,44 3,96 8,115 6,19 14,175 20,345 5,171 10,311 10,313 0,6 24,1 56,-13 z M 1003,2794 c 46,-66 79,-132 74,-147 -2,-7 -14,10 -26,37 -12,27 -37,73 -56,102 -19,29 -35,56 -35,60 0,9 0,9 43,-52 z m 10,-111 37,-71 -10,-99 c -17,-164 -40,-712 -40,-943 0,-208 1,-218 21,-236 19,-17 42,-19 263,-22 219,-3 388,0 1271,28 154,5 289,12 301,15 11,4 118,-10 237,-29 118,-20 225,-36 236,-36 12,0 21,-4 21,-9 0,-13 -76,-18 -435,-31 -828,-28 -1046,-33 -1498,-34 -473,-1 -489,0 -503,18 -27,38 -18,603 21,1248 8,136 15,254 15,263 0,33 26,7 63,-62 z m 87,-74 c 0,-5 -4,-9 -10,-9 -5,0 -10,7 -10,16 0,8 5,12 10,9 6,-3 10,-10 10,-16 z m 18,-131 c 31,-151 59,-324 87,-538 25,-193 37,-215 139,-245 109,-33 369,-89 691,-150 105,-19 224,-42 265,-50 177,-35 495,-85 543,-85 61,0 127,-10 127,-19 0,-3 -91,-6 -202,-6 -112,0 -450,-6 -753,-13 -302,-7 -644,-12 -760,-10 l -210,3 2,265 c 2,146 9,402 18,570 8,168 15,322 15,343 0,68 17,39 38,-65 z m 5192,-162 c 0,-41 -4,-78 -10,-81 -6,-4 -10,23 -10,74 0,47 4,81 10,81 6,0 10,-31 10,-74 z m -10,-185 c 0,-33 -4,-63 -10,-66 -6,-4 -10,18 -10,59 0,37 4,66 10,66 6,0 10,-26 10,-59 z m -13,-133 c -3,-7 -5,-2 -5,12 0,14 2,19 5,13 2,-7 2,-19 0,-25 z m 3,-152 c 0,-36 -4,-68 -10,-71 -6,-4 -10,20 -10,64 0,41 4,71 10,71 6,0 10,-28 10,-64 z m -10,-150 c 0,-25 -4,-48 -10,-51 -6,-4 -10,13 -10,44 0,28 5,51 10,51 6,0 10,-20 10,-44 z m -11,-148 c -1,-24 -5,-56 -9,-73 -6,-23 -8,-12 -9,43 -1,42 3,72 9,72 6,0 9,-19 9,-42 z m -9,-148 c 0,-11 -4,-20 -10,-20 -5,0 -10,9 -10,20 0,11 5,20 10,20 6,0 10,-9 10,-20 z m -3220,-20 c 0,-13 -20,-13 -40,0 -12,8 -9,10 13,10 15,0 27,-4 27,-10 z m 123,-16 c 26,-3 47,-11 47,-16 0,-5 -12,-7 -27,-4 -16,3 -47,8 -70,11 -24,4 -46,11 -49,17 -4,6 4,8 22,4 16,-3 50,-8 77,-12 z m 107,-24 c 0,-5 -6,-10 -14,-10 -8,0 -18,5 -21,10 -3,6 3,10 14,10 12,0 21,-4 21,-10 z m 70,-10 c 0,-5 -9,-10 -19,-10 -11,0 -23,5 -26,10 -4,6 5,10 19,10 14,0 26,-4 26,-10 z m 50,-10 c 0,-5 -4,-10 -9,-10 -6,0 -13,5 -16,10 -3,6 1,10 9,10 9,0 16,-4 16,-10 z m 70,-10 c 0,-5 -6,-10 -14,-10 -8,0 -18,5 -21,10 -3,6 3,10 14,10 12,0 21,-4 21,-10 z m 60,-10 c 0,-13 -11,-13 -30,0 -12,8 -11,10 8,10 12,0 22,-4 22,-10 z m 60,-10 c 0,-13 -11,-13 -30,0 -12,8 -11,10 8,10 12,0 22,-4 22,-10 z m 50,-10 c 0,-5 -7,-7 -15,-4 -8,4 -15,8 -15,10 0,2 7,4 15,4 8,0 15,-4 15,-10 z"
       id="path4"
       inkscape:connector-curvature="0" />
    <path
       d="m 5735,4314 c -97,-6 -433,-24 -620,-34 -104,-6 -248,-15 -320,-20 -71,-6 -200,-15 -285,-20 -85,-5 -240,-16 -345,-24 -104,-8 -260,-20 -345,-26 -85,-6 -222,-17 -305,-25 -82,-8 -199,-19 -260,-25 -132,-12 -229,-24 -475,-56 -102,-13 -221,-29 -265,-34 -176,-23 -786,-109 -960,-135 -49,-8 -124,-19 -165,-24 -41,-6 -149,-22 -240,-36 -238,-37 -276,-43 -365,-55 -44,-7 -116,-18 -160,-25 -44,-7 -150,-23 -235,-35 -85,-12 -160,-24 -166,-25 -6,-2 -21,-59 -33,-127 -13,-67 -25,-133 -28,-145 -3,-14 0,-24 8,-27 112,-31 294,-96 369,-132 200,-95 388,-244 503,-399 102,-137 147,-251 191,-480 23,-117 36,-202 76,-497 7,-48 18,-92 25,-98 36,-30 507,-133 1010,-220 61,-11 173,-31 250,-45 147,-27 869,-146 1325,-219 85,-14 218,-35 295,-46 77,-11 169,-25 205,-31 36,-6 92,-15 125,-19 33,-5 188,-26 345,-49 157,-22 317,-45 355,-51 39,-5 162,-21 275,-34 461,-55 586,-63 600,-36 9,17 36,271 45,420 3,52 10,169 15,260 16,269 40,888 50,1295 11,433 13,1207 4,1254 l -6,31 -222,-2 c -121,-1 -243,-3 -271,-4 z m 453,-36 c 48,-60 -10,-2303 -80,-3033 -15,-160 -17,-165 -70,-165 -105,0 -578,57 -1133,136 -1078,153 -2487,388 -3170,528 -331,69 -385,87 -385,133 0,33 -53,397 -75,517 -44,240 -95,367 -207,518 -116,156 -272,282 -479,387 -75,37 -189,85 -253,106 -65,21 -120,44 -123,52 -7,17 25,204 36,216 9,9 67,18 621,102 1313,198 2086,302 2560,345 711,64 2073,152 2520,163 52,2 125,4 161,5 43,1 70,-2 77,-10 z"
       id="path6"
       inkscape:connector-curvature="0" />
    <path
       d="m 2022,3410 c -31,-13 -44,-54 -40,-129 4,-57 7,-66 36,-90 l 32,-26 v -215 -215 l -32,-27 c -32,-26 -33,-28 -33,-108 0,-111 -1,-110 185,-110 98,0 150,4 158,12 9,9 18,9 37,0 16,-7 81,-12 169,-12 177,0 176,0 176,118 0,78 -1,81 -30,102 l -30,21 v 219 219 l 30,21 31,22 -3,91 c -3,86 -4,92 -28,104 -37,19 -266,17 -302,-1 -24,-13 -32,-13 -55,0 -32,16 -262,19 -301,4 z m 293,-110 c 0,-71 -1,-74 -25,-80 -25,-6 -25,-7 -25,-110 v -105 h 85 85 v 105 c 0,103 0,104 -25,110 -24,6 -25,9 -25,80 v 75 h 145 145 v -75 -75 l -30,-5 -30,-5 v -265 -265 l 30,-5 30,-5 v -75 -75 h -145 -145 v 75 c 0,71 1,74 25,80 25,6 25,7 25,110 v 105 h -85 -85 v -105 c 0,-103 0,-104 25,-110 24,-6 25,-9 25,-80 v -75 h -145 -145 v 75 c 0,74 0,75 28,80 l 28,5 v 265 265 l -28,5 c -27,5 -28,8 -31,69 -2,35 -1,70 2,78 5,11 34,13 148,11 l 143,-3 z m 63,-108 c 21,-16 23,-25 20,-82 l -3,-65 h -45 -45 l -3,65 c -3,57 0,67 19,82 26,22 28,22 57,0 z m 20,-403 c 3,-61 1,-67 -23,-83 -23,-15 -27,-15 -50,0 -22,14 -25,23 -25,78 0,35 3,66 7,70 4,4 25,6 48,4 l 40,-3 z"
       id="path8"
       inkscape:connector-curvature="0" />
    <path
       d="m 2880,3407 c -31,-15 -46,-81 -36,-150 6,-36 14,-51 37,-67 l 29,-21 v -217 -217 l -32,-27 c -32,-26 -33,-29 -33,-101 0,-115 2,-117 190,-117 186,0 185,0 185,113 0,72 -1,77 -30,99 l -30,24 2,224 3,225 h 30 c 26,0 30,-4 33,-30 6,-54 26,-65 119,-65 120,0 123,4 123,168 0,180 24,166 -304,170 -197,2 -267,-1 -286,-11 z m 551,-31 c 2,-2 3,-63 1,-136 l -3,-131 -82,3 -82,3 -1,50 -1,50 h -69 -69 v -265 -265 l 29,-5 c 29,-5 29,-5 30,-80 v -75 h -149 -150 v 75 75 l 30,5 30,5 v 265 265 l -30,5 c -29,5 -30,7 -33,69 -2,35 -1,70 2,77 4,11 57,14 274,14 148,0 271,-2 273,-4 z"
       id="path10"
       inkscape:connector-curvature="0" />
    <path
       d="m 3642,3410 c -35,-15 -44,-54 -40,-183 4,-147 6,-150 123,-145 44,2 88,7 98,12 16,8 17,-3 15,-180 -3,-187 -3,-188 -27,-200 -36,-18 -41,-32 -41,-115 0,-110 -2,-109 202,-109 200,0 198,-1 198,112 0,75 -1,77 -35,105 l -34,28 -3,172 c -2,117 1,176 9,184 8,8 13,8 17,0 4,-7 41,-11 90,-11 115,0 116,1 116,166 0,97 -4,135 -14,150 -14,18 -30,19 -333,21 -179,1 -328,-2 -341,-7 z m 653,-165 v -130 h -80 -80 v 55 55 h -35 -35 v -270 -270 l 34,-5 34,-5 v -75 -75 h -164 -164 v 75 75 l 35,5 35,5 v 270 270 h -35 -35 l -5,-55 -5,-55 h -75 -75 l -3,119 c -1,66 0,126 2,133 4,11 68,13 328,11 l 323,-3 z"
       id="path12"
       inkscape:connector-curvature="0" />
    <path
       d="m 4492,3410 c -28,-12 -42,-48 -42,-110 0,-67 14,-97 52,-113 31,-13 40,-30 123,-226 50,-117 90,-218 90,-224 0,-8 -26,-14 -67,-18 -95,-8 -108,-22 -108,-113 0,-113 4,-116 157,-116 148,0 198,17 238,79 13,20 64,162 114,317 90,277 91,281 128,305 l 38,24 3,81 c 4,115 -1,118 -173,122 -107,3 -141,0 -168,-13 -30,-14 -36,-14 -63,0 -22,11 -62,15 -164,14 -74,0 -145,-4 -158,-9 z m 313,-110 c 0,-67 -2,-75 -20,-78 -44,-7 -45,-9 -11,-94 19,-46 42,-109 52,-140 10,-32 21,-58 25,-58 4,0 15,26 24,58 9,31 27,93 41,136 25,81 24,91 -11,98 -18,3 -20,11 -20,78 v 75 l 148,3 147,3 v -80 -80 l -32,-3 -32,-3 -102,-315 c -88,-270 -107,-317 -130,-335 -48,-35 -86,-43 -197,-44 l -108,-1 3,78 3,77 75,3 c 78,3 100,13 100,43 0,16 -174,435 -199,479 -4,8 -21,17 -37,20 -28,5 -29,7 -32,69 -2,35 -1,70 2,78 5,11 36,13 158,11 l 153,-3 z m 69,-109 c 16,-18 16,-22 1,-75 -9,-32 -21,-56 -27,-54 -6,2 -19,28 -30,57 -19,50 -19,53 -2,72 22,24 36,24 58,0 z"
       id="path14"
       inkscape:connector-curvature="0" />
    <path
       d="m 2225,2280 c -13,-15 -16,-27 -10,-57 10,-49 10,-227 0,-275 -10,-52 18,-78 85,-78 67,0 95,26 85,78 -4,21 -8,66 -8,102 l -2,65 38,6 c 53,9 62,21 62,90 0,82 -11,89 -135,89 -83,0 -99,-3 -115,-20 z m 210,-70 c 0,-49 -2,-55 -22,-58 -17,-3 -26,3 -33,23 -7,17 -16,25 -28,23 -15,-3 -17,-18 -20,-107 -2,-63 1,-108 8,-115 5,-5 10,-23 10,-38 0,-26 -3,-28 -40,-29 -22,-1 -46,-2 -52,-3 -19,-1 -21,49 -4,64 23,18 23,212 1,230 -16,13 -20,51 -8,64 4,4 48,5 98,4 l 90,-3 z"
       id="path16"
       inkscape:connector-curvature="0" />
    <path
       d="m 3681,2257 c -6,-6 -11,-17 -11,-24 0,-8 -7,-27 -15,-44 l -16,-29 -30,22 c -44,33 -128,32 -163,-1 l -25,-24 -20,24 c -18,22 -26,24 -106,24 -79,0 -89,-2 -106,-24 l -19,-23 -19,23 c -17,21 -27,24 -96,24 -64,0 -79,-3 -91,-19 -13,-19 -14,-19 -35,0 -29,26 -157,28 -186,2 -18,-17 -21,-17 -58,2 -45,23 -108,26 -145,7 -24,-12 -25,-16 -27,-127 -1,-63 -3,-128 -4,-144 -2,-35 22,-56 66,-56 40,0 75,25 75,54 0,13 14,35 35,53 30,27 35,37 35,77 0,28 5,46 12,46 8,0 9,-27 5,-97 -9,-125 -3,-133 96,-133 52,0 75,4 89,17 18,16 21,16 47,0 46,-27 132,-23 169,8 l 29,24 23,-24 c 21,-23 31,-25 106,-25 77,0 84,2 103,26 l 21,26 31,-26 c 38,-33 99,-35 147,-6 l 33,20 26,-20 c 35,-27 183,-30 204,-3 10,12 14,53 15,155 0,77 -4,141 -8,144 -4,3 -8,15 -8,28 0,38 -28,53 -102,53 -36,0 -71,-4 -77,-10 z m 59,-32 c 16,-19 29,-19 51,1 23,21 43,10 29,-17 -15,-26 -90,-27 -113,-1 -17,19 -14,32 8,32 7,0 18,-7 25,-15 z m -1062,-67 c 7,-7 12,-39 12,-75 0,-56 -3,-64 -25,-79 -14,-9 -31,-14 -40,-11 -21,9 -27,-8 -14,-37 18,-38 7,-53 -36,-48 -34,4 -36,6 -30,31 11,42 13,164 3,184 -18,35 -3,47 60,47 32,0 63,-5 70,-12 z m 230,-26 c 4,-40 -20,-53 -49,-26 -24,21 -42,8 -37,-27 3,-23 13,-26 48,-18 10,3 15,-4 15,-21 0,-21 -5,-25 -30,-25 -21,0 -31,-5 -33,-19 -6,-30 15,-42 37,-22 30,28 53,14 49,-30 l -3,-36 h -70 -70 l 3,29 c 12,110 13,158 2,183 -18,43 -6,51 68,48 l 67,-3 z m 220,0 c 4,-39 -20,-53 -48,-27 -18,16 -20,16 -26,1 -10,-27 3,-44 38,-48 l 33,-3 v -70 -70 l -72,-3 c -67,-3 -73,-1 -73,17 0,11 5,23 10,26 13,8 13,141 -1,166 -21,39 -5,50 68,47 l 68,-3 z m 243,8 c -6,-44 -4,-174 3,-202 l 8,-26 -87,-1 h -87 l 7,27 c 14,53 17,153 5,182 -7,16 -9,33 -6,39 3,5 41,9 84,8 76,-2 77,-2 73,-27 z m 217,18 c 17,-17 16,-208 -1,-232 -10,-13 -24,-17 -67,-14 l -55,3 -3,114 c -2,75 1,118 9,127 14,17 100,19 117,2 z m 154,-55 c -2,-35 -2,-63 1,-63 3,0 14,15 25,33 14,25 17,39 10,51 -16,29 -2,48 34,44 29,-3 33,-6 29,-28 -6,-45 -4,-174 4,-202 7,-27 6,-28 -35,-28 -41,0 -42,1 -35,28 13,52 17,102 8,102 -17,0 -40,-64 -36,-97 5,-33 5,-33 -37,-33 -41,0 -42,1 -35,28 14,53 17,153 5,182 -16,37 -5,52 33,48 l 32,-3 z m -554,-56 c 3,-76 -12,-91 -22,-21 -9,71 -8,96 7,92 7,-3 13,-29 15,-71 z m 232,-2 c 0,-37 -4,-65 -10,-65 -6,0 -10,28 -10,65 0,37 4,65 10,65 6,0 10,-28 10,-65 z m -460,-6 c 0,-42 -4,-59 -12,-57 -21,7 -31,56 -18,89 19,46 30,34 30,-32 z"
       id="path18"
       inkscape:connector-curvature="0" />
    <path
       d="m 2604,2107 c -10,-27 0,-72 16,-72 11,0 15,11 15,39 0,40 -20,61 -31,33 z"
       id="path20"
       inkscape:connector-curvature="0" />
    <path
       d="m 3054,2016 c -9,-23 0,-51 16,-51 10,0 15,10 15,29 0,32 -21,47 -31,22 z"
       id="path22"
       inkscape:connector-curvature="0" />
    <path
       d="m 3274,2106 c -8,-35 2,-58 23,-54 25,5 25,71 1,76 -12,2 -19,-5 -24,-22 z"
       id="path24"
       inkscape:connector-curvature="0" />
    <path
       d="m 3277,2014 c -12,-12 -8,-51 7,-63 18,-15 39,9 34,41 -3,22 -27,35 -41,22 z"
       id="path26"
       inkscape:connector-curvature="0" />
    <path
       d="m 3505,2117 c -3,-7 -5,-47 -3,-88 3,-66 5,-74 23,-74 18,0 20,7 20,85 0,73 -2,85 -18,88 -9,2 -20,-3 -22,-11 z"
       id="path28"
       inkscape:connector-curvature="0" />
    <path
       d="m 4025,2188 -28,-24 13,-66 c 10,-51 11,-75 2,-111 -16,-62 -15,-74 8,-97 27,-27 157,-29 201,-3 27,16 29,16 49,-2 18,-16 25,-17 55,-6 25,9 40,9 54,2 56,-31 129,6 117,57 -13,56 -17,147 -6,162 9,13 12,12 25,-5 9,-11 21,-37 27,-58 10,-32 9,-43 -4,-65 -37,-61 7,-114 80,-96 42,10 57,34 94,153 13,41 29,77 37,79 12,4 13,-13 8,-101 -6,-102 -6,-107 15,-122 14,-9 44,-15 81,-15 52,0 62,3 89,30 l 30,31 -6,117 c -7,110 -9,119 -34,141 -23,21 -33,23 -89,18 -35,-2 -70,-10 -78,-17 -12,-10 -21,-9 -47,3 -44,20 -166,16 -198,-6 -22,-15 -25,-15 -43,0 -24,22 -132,29 -167,11 -24,-13 -25,-18 -26,-98 0,-90 -14,-133 -41,-128 -9,2 -23,23 -31,46 -13,41 -13,46 7,73 24,32 28,81 7,98 -8,7 -34,11 -58,10 -23,-1 -59,2 -79,6 -29,6 -40,3 -64,-17 z m 80,-68 c -8,-60 8,-68 26,-12 15,48 27,62 51,62 30,0 32,-27 3,-62 -19,-22 -25,-38 -21,-55 3,-13 9,-35 12,-50 4,-16 13,-36 21,-45 17,-19 14,-53 -5,-52 -6,1 -24,2 -38,3 -25,1 -26,3 -20,44 5,32 3,47 -8,56 -21,18 -28,-1 -20,-54 l 6,-45 h -33 -34 v 130 130 h 33 34 z m 349,-83 1,-127 h -37 c -30,0 -38,4 -38,18 0,10 5,23 10,28 14,14 9,164 -5,164 -5,0 -13,-32 -17,-72 -9,-85 -23,-125 -50,-139 -36,-19 -53,18 -22,52 20,22 36,136 23,161 -21,38 -4,49 67,46 l 67,-3 z m 161,123 c 3,-5 1,-18 -4,-29 -7,-13 -7,-29 0,-50 21,-59 36,-30 30,57 -3,32 -2,33 31,30 40,-4 40,-8 3,-133 -36,-120 -39,-125 -80,-125 -29,0 -35,4 -35,21 0,12 8,23 20,26 11,3 20,11 20,19 0,14 -31,98 -55,149 -7,16 -11,33 -9,37 7,11 72,10 79,-2 z m 313,-28 c 4,-39 -19,-53 -47,-28 -25,23 -33,20 -29,-11 2,-23 9,-29 33,-31 17,-2 36,-11 43,-20 14,-19 16,-71 2,-106 -9,-25 -14,-26 -80,-26 -63,0 -70,2 -70,19 0,11 5,23 10,26 14,9 13,158 -1,172 -7,7 -9,19 -5,28 5,13 19,15 73,13 l 68,-3 z"
       id="path30"
       inkscape:connector-curvature="0" />
    <path
       d="m 4857,2024 c -4,-4 -7,-20 -7,-36 0,-23 4,-29 18,-26 11,2 17,13 17,32 0,29 -14,43 -28,30 z"
       id="path32"
       inkscape:connector-curvature="0" />
    <path
       d="m 3235,929 c -4,-5 1,-19 11,-30 26,-29 120,-24 141,8 14,20 14,23 -1,29 -11,4 -26,-2 -40,-15 -28,-26 -52,-27 -66,-1 -12,22 -35,26 -45,9 z"
       id="path34"
       inkscape:connector-curvature="0" />
    <path
       d="m 1507,904 c -12,-13 -8,-51 8,-64 23,-19 22,-245 -1,-258 -10,-6 -14,-19 -12,-38 3,-28 5,-29 53,-29 h 50 l -3,40 c -9,134 -10,130 23,130 28,0 30,-3 33,-39 2,-22 -2,-49 -8,-61 -7,-12 -10,-33 -8,-46 3,-22 8,-24 53,-24 49,0 50,1 53,33 2,22 -2,34 -12,38 -23,9 -23,235 0,254 8,8 14,25 12,39 -3,24 -7,26 -53,26 h -50 l 3,-35 c 2,-19 4,-57 5,-85 2,-49 2,-50 -28,-50 -30,0 -30,1 -28,50 1,28 3,66 5,85 3,35 3,35 -42,38 -25,2 -49,0 -53,-4 z"
       id="path36"
       inkscape:connector-curvature="0" />
    <path
       d="m 3689,903 c -3,-21 4,-59 12,-67 14,-16 11,-232 -3,-244 -7,-6 -13,-25 -12,-44 1,-33 1,-33 50,-33 h 49 l -3,35 c -2,19 -4,58 -5,85 -2,49 -2,50 28,50 33,0 32,4 23,-130 l -3,-40 h 50 c 49,0 50,1 53,33 2,22 -2,34 -12,38 -23,9 -23,235 0,254 8,8 14,25 12,39 -3,24 -7,26 -53,26 h -50 l 3,-35 c 2,-19 4,-57 5,-85 2,-49 2,-50 -28,-50 -30,0 -30,1 -28,50 1,28 3,66 5,85 l 3,35 -47,3 c -27,2 -48,-1 -49,-5 z"
       id="path38"
       inkscape:connector-curvature="0" />
    <path
       d="m 1865,823 c 4,-21 7,-83 7,-138 0,-55 -3,-117 -7,-138 l -7,-38 48,3 c 44,3 49,6 52,29 2,14 -3,31 -11,38 -12,10 -11,19 12,61 14,27 30,50 34,50 5,0 6,-24 3,-52 -3,-29 -7,-69 -8,-88 l -3,-35 h 45 c 41,0 45,2 48,26 2,14 -4,31 -12,39 -12,10 -16,34 -16,105 0,71 4,95 16,105 8,8 14,25 12,39 -3,23 -8,26 -46,29 -49,4 -62,-13 -44,-60 9,-24 6,-37 -16,-83 -15,-29 -30,-54 -34,-54 -5,-1 -8,25 -8,58 0,41 5,62 16,71 8,8 14,25 12,39 -3,23 -8,26 -52,29 l -48,3 z"
       id="path40"
       inkscape:connector-curvature="0" />
    <path
       d="m 2177,853 c -14,-13 -6,-50 13,-68 33,-30 45,-86 26,-123 -9,-17 -16,-40 -16,-50 0,-11 -7,-25 -16,-32 -8,-8 -14,-25 -12,-39 3,-22 9,-26 42,-29 50,-4 57,4 45,53 -13,50 2,98 29,93 18,-4 20,-34 6,-111 l -6,-38 43,3 c 42,3 44,4 42,33 -1,17 -5,46 -9,66 -4,25 -2,39 7,44 22,14 40,-26 37,-85 l -3,-55 h 40 c 31,0 41,4 43,19 4,18 -14,70 -44,129 -18,37 -1,102 33,124 26,17 31,60 8,69 -28,11 -63,-24 -86,-86 -25,-70 -44,-80 -35,-17 16,103 16,102 -34,102 -40,0 -45,-3 -48,-23 -2,-13 4,-32 13,-42 17,-19 18,-85 1,-85 -4,0 -18,26 -30,59 -26,68 -68,111 -89,89 z"
       id="path42"
       inkscape:connector-curvature="0" />
    <path
       d="m 2587,854 c -12,-13 -8,-51 8,-64 22,-18 21,-192 -1,-210 -8,-8 -14,-25 -12,-39 3,-24 7,-26 48,-26 h 45 l -3,35 c -9,113 -9,115 18,115 27,0 27,-2 18,-115 l -3,-35 h 45 c 41,0 45,2 48,26 2,14 -4,31 -12,39 -12,10 -16,34 -16,105 0,71 4,95 16,105 8,8 14,25 12,39 -3,24 -7,26 -48,26 h -45 l 3,-35 c 9,-113 9,-115 -18,-115 -21,0 -26,5 -28,34 -2,19 2,44 8,56 21,39 9,60 -35,63 -23,2 -44,0 -48,-4 z"
       id="path44"
       inkscape:connector-curvature="0" />
    <path
       d="m 2894,845 c -4,-9 -1,-33 5,-53 11,-34 11,-106 -1,-242 -3,-35 -3,-35 40,-38 49,-4 62,13 45,59 -9,24 -7,36 15,79 15,27 30,50 34,50 10,0 -1,-100 -14,-126 -20,-41 -7,-59 42,-59 h 45 l -3,35 c -5,45 -5,225 0,270 l 3,35 h -45 c -39,0 -45,-3 -48,-23 -2,-13 2,-30 9,-38 10,-12 8,-24 -11,-64 -13,-28 -28,-50 -33,-50 -5,0 -6,23 -3,53 14,131 16,122 -32,125 -32,2 -44,-1 -48,-13 z"
       id="path46"
       inkscape:connector-curvature="0" />
    <path
       d="m 3214,845 c -4,-9 -1,-33 5,-53 13,-37 10,-167 -4,-244 l -7,-38 h 46 c 44,0 46,1 46,28 0,15 -4,33 -9,41 -10,15 36,121 52,121 9,0 4,-82 -9,-153 l -6,-38 48,3 c 48,3 49,4 46,33 -2,17 -8,34 -13,40 -12,12 -12,188 0,200 5,6 11,24 13,40 3,29 1,30 -40,33 -48,4 -62,-13 -45,-57 7,-21 4,-37 -16,-78 -14,-29 -29,-53 -34,-53 -5,0 -6,26 -3,58 13,138 15,127 -27,130 -27,2 -39,-1 -43,-13 z"
       id="path48"
       inkscape:connector-curvature="0" />
    <path
       d="m 4060,840 c -18,-18 -20,-33 -20,-159 0,-133 1,-141 22,-155 13,-9 43,-16 69,-16 74,0 79,11 79,178 0,134 -1,142 -22,156 -33,23 -103,21 -128,-4 z m 95,-155 V 575 h -25 c -25,0 -25,0 -28,104 -3,107 3,125 38,118 12,-2 15,-22 15,-112 z"
       id="path50"
       inkscape:connector-curvature="0" />
    <path
       d="m 4317,853 c -12,-12 -7,-50 8,-63 22,-18 21,-192 -1,-210 -8,-8 -14,-25 -12,-39 3,-25 6,-26 77,-29 95,-4 111,9 111,85 0,29 -6,62 -12,73 -10,15 -10,22 0,32 6,6 12,36 12,65 0,76 -20,93 -108,93 -38,0 -72,-3 -75,-7 z m 118,-108 c 0,-33 -3,-40 -20,-40 -15,0 -21,8 -23,28 -5,39 5,59 25,55 14,-2 18,-13 18,-43 z m 0,-120 c 0,-33 -3,-40 -20,-40 -15,0 -21,8 -23,28 -5,39 5,59 25,55 14,-2 18,-13 18,-43 z"
       id="path52"
       inkscape:connector-curvature="0" />
    <path
       d="m 4603,845 c -3,-9 0,-33 6,-53 11,-34 11,-106 -1,-242 l -3,-35 h 45 c 41,0 45,2 48,26 2,14 -4,31 -12,39 -24,19 -23,198 0,207 11,4 23,-2 34,-16 10,-14 24,-22 36,-19 16,3 19,12 19,53 v 50 l -83,3 c -68,2 -83,0 -89,-13 z"
       id="path54"
       inkscape:connector-curvature="0" />
    <path
       d="m 4902,844 c -21,-14 -22,-22 -22,-158 0,-167 4,-176 83,-176 80,0 87,15 87,175 0,122 -2,137 -20,155 -25,25 -95,27 -128,4 z m 76,-52 c 9,-6 12,-36 10,-113 -3,-104 -3,-104 -28,-104 -25,0 -25,1 -28,99 -1,55 0,106 2,113 6,15 25,17 44,5 z"
       id="path56"
       inkscape:connector-curvature="0" />
    <path
       d="m 5147,853 c -3,-5 2,-28 10,-51 15,-44 14,-170 -2,-255 l -7,-38 43,3 c 48,3 47,3 37,88 -3,22 1,25 32,28 59,6 70,24 70,118 0,74 -2,84 -22,98 -23,17 -152,23 -161,9 z m 128,-123 c 0,-52 -1,-55 -25,-55 -22,0 -25,5 -28,44 -4,57 3,73 30,69 21,-3 23,-9 23,-58 z"
       id="path58"
       inkscape:connector-curvature="0" />
    <path
       d="m 5462,844 c -21,-14 -22,-22 -22,-158 0,-126 2,-145 18,-159 24,-22 100,-22 130,-1 21,14 22,22 22,155 0,126 -2,141 -20,159 -25,25 -95,27 -128,4 z m 83,-159 V 575 h -25 c -25,0 -25,1 -28,99 -3,116 0,129 30,124 22,-3 23,-6 23,-113 z"
       id="path60"
       inkscape:connector-curvature="0" />
    <path
       d="m 5749,855 c -5,-27 -1,-56 11,-70 12,-14 11,-29 -3,-103 -10,-49 -23,-92 -32,-98 -11,-8 -15,-29 -15,-73 0,-62 0,-62 28,-59 21,2 28,9 30,31 3,27 5,28 60,25 51,-3 57,-5 62,-28 4,-18 12,-25 30,-25 23,0 25,4 28,54 2,39 -1,58 -14,72 -14,16 -16,35 -12,131 3,62 7,120 9,128 3,12 -12,16 -88,18 -51,1 -93,0 -94,-3 z m 106,-171 v -99 l -27,-3 c -16,-2 -28,1 -28,6 0,18 21,177 26,190 2,8 10,12 17,9 8,-2 12,-32 12,-103 z"
       id="path62"
       inkscape:connector-curvature="0" />
  </g>
  <path
     style="fill:#ffffff;stroke-width:0.36446419"
     d="m 472.45357,161.60265 c -63.12735,-5.2818 -225.40358,-26.0557 -235.62685,-30.16392 -1.74487,-0.70118 -1.93323,-1.05974 -2.45507,-4.67359 -0.78135,-5.41092 -3.32061,-17.83782 -4.45483,-21.80155 -1.34458,-4.69883 -2.73584,-7.927932 -4.79287,-11.124232 -7.65072,-11.88801 -22.05367,-20.668118 -43.94288,-26.787788 -2.50136,-0.699321 -4.8735,-1.372568 -5.27144,-1.496108 -0.85253,-0.264682 -0.93067,-1.527385 -0.28802,-4.653879 0.63539,-3.09115 1.15657,-4.410849 1.82009,-4.608715 2.75807,-0.822448 99.24926,-11.823375 131.28737,-14.968025 27.95307,-2.743693 42.70974,-3.803981 85.16982,-6.119575 48.61097,-2.651052 93.22734,-4.346501 94.62932,-3.595981 1.35843,0.727207 1.52622,20.151002 0.44316,51.300364 -1.52192,43.771399 -3.98903,77.049059 -5.84072,78.782879 -0.55171,0.51658 -3.75057,0.48965 -10.67708,-0.0899 z m -144.70599,-32.156 c 0.56849,-0.24237 1.35243,-0.61551 1.74211,-0.82919 0.59084,-0.32399 0.90353,-0.24329 1.88311,0.48601 1.12619,0.83845 1.35387,0.87452 5.51921,0.87452 4.28736,0 4.36021,-0.0126 5.53259,-0.96361 1.16922,-0.94837 1.2015,-0.95408 2.04121,-0.36143 2.15203,1.51886 5.53099,1.79265 8.23337,0.66712 l 1.57966,-0.65793 1.84312,0.69335 c 1.35187,0.50855 2.69236,0.70433 5.02935,0.73453 4.05443,0.0524 5.38278,-0.2333 5.88823,-1.26642 0.67267,-1.37487 0.49451,-10.86043 -0.24091,-12.82627 -0.74833,-2.00038 -1.68976,-2.40491 -5.59673,-2.40491 -3.15915,0 -4.42262,0.40155 -4.76632,1.51475 -0.15196,0.49219 -0.53089,1.28775 -0.84205,1.7679 l -0.56576,0.87301 -1.96025,-0.81839 c -2.53403,-1.05793 -6.22364,-0.99006 -8.28844,0.15248 l -1.33164,0.73685 -1.26653,-0.82815 c -1.17346,-0.76732 -1.56562,-0.82816 -5.33753,-0.82816 -3.78007,0 -4.16224,0.0596 -5.34743,0.83463 l -1.27642,0.83462 -0.78574,-0.7543 c -0.70222,-0.67413 -1.1902,-0.76638 -4.59069,-0.86796 -3.32705,-0.0994 -3.94908,-0.0308 -4.95255,0.54567 -1.14324,0.65683 -1.15362,0.65696 -2.72768,0.0333 -2.16907,-0.85936 -6.83103,-0.86412 -8.98894,-0.009 -1.54468,0.61197 -1.57208,0.61157 -3.49835,-0.0514 -2.44654,-0.84205 -6.12441,-0.93039 -7.59346,-0.1824 -1.3546,0.68973 -1.57302,1.75654 -1.57876,7.71124 -0.004,4.51606 0.0354,4.74243 0.91433,5.2209 1.31642,0.71652 4.11535,0.64015 5.40384,-0.14745 0.58269,-0.35618 1.26247,-1.12564 1.51061,-1.70992 0.24813,-0.58427 1.09884,-1.55013 1.89043,-2.14635 0.97868,-0.73713 1.45493,-1.39804 1.48819,-2.0652 0.0269,-0.53963 0.20666,-1.41488 0.39944,-1.94501 0.22103,-0.60777 0.28294,0.37109 0.16756,2.64962 -0.17964,3.54783 0.14456,5.10677 1.16709,5.61203 0.27002,0.13342 2.17051,0.24479 4.22332,0.2475 2.77421,0.004 3.97705,-0.12826 4.68544,-0.51383 0.87217,-0.47471 1.08175,-0.47557 2.46931,-0.0101 2.59944,0.87205 5.87588,0.87101 7.92466,-0.002 z m 57.82801,-0.038 c 1.08932,-0.39406 1.53962,-0.42146 2.06723,-0.1258 1.29797,0.72735 1.84738,0.79907 3.49819,0.45666 1.045,-0.21675 2.03061,-0.23654 2.65102,-0.0532 1.71445,0.50653 4.05479,0.33764 5.22392,-0.37701 l 1.09412,-0.66879 -0.2712,-3.9422 c -0.3211,-4.6675 0.11602,-5.35582 1.71072,-2.69388 1.16825,1.95008 1.24553,2.66317 0.4115,3.79695 -2.07701,2.82342 1.67235,5.26568 5.63762,3.67223 1.33994,-0.53845 2.39503,-2.09659 4.03212,-5.9546 0.49518,-1.16695 1.18146,-2.39587 1.52507,-2.73092 0.56269,-0.54868 0.60072,-0.19421 0.3828,3.56751 -0.13308,2.29718 -0.0948,4.33578 0.0852,4.53022 0.71191,0.76932 2.27226,1.09227 5.2773,1.09227 3.06642,0 3.18445,-0.0297 4.78119,-1.20482 l 1.63716,-1.20482 -0.41262,-4.65864 c -0.44469,-5.02077 -0.81593,-5.83878 -3.03336,-6.68387 -0.86196,-0.32851 -1.78216,-0.34496 -4.26788,-0.0763 -1.74296,0.18839 -3.38871,0.48421 -3.65724,0.65739 -0.3253,0.2098 -1.14075,0.14211 -2.44355,-0.20286 -2.42241,-0.64141 -8.50025,-0.48948 -10.3707,0.25926 -1.14252,0.45734 -1.33814,0.44942 -2.48066,-0.10037 -0.94201,-0.45331 -2.04976,-0.59729 -4.60547,-0.59857 -4.89088,-0.002 -5.05991,0.1492 -5.46855,4.90628 -0.18777,2.18594 -0.53476,3.94647 -0.82176,4.1695 -0.75678,0.58809 -1.82356,-0.0878 -2.50654,-1.58803 -0.55387,-1.21665 -0.52595,-1.37896 0.5168,-3.00508 1.29408,-2.018 1.35537,-2.57803 0.37878,-3.46063 -0.6143,-0.55518 -1.4177,-0.68671 -5.32159,-0.87123 l -4.59805,-0.21733 -1.3147,0.91596 -1.3147,0.91594 0.59253,2.64415 c 0.49267,2.19853 0.50411,3.00979 0.0679,4.81361 -0.75859,3.13695 -0.12432,4.05504 3.16216,4.57711 2.31089,0.3671 6.36804,0.0905 8.15526,-0.55606 z m -97.37225,-0.0938 1.08497,-0.66319 -0.26418,-4.28037 -0.26416,-4.28037 1.75937,-0.23099 c 2.74573,-0.36048 3.32568,-1.02454 3.32568,-3.80801 0,-3.38588 -0.30921,-3.55415 -6.77873,-3.68905 -4.47942,-0.0934 -5.15017,-0.0362 -6.02307,0.51299 l -0.98229,0.61811 0.0212,7.66205 c 0.0208,7.52756 0.0374,7.67223 0.94289,8.24204 1.36673,0.86001 5.71777,0.80958 7.17834,-0.0832 z m -5.1079,-24.74267 c 3.89851,-0.38453 3.42462,-0.3865 9.30253,0.0387 6.74572,0.48788 11.57808,0.17428 12.8778,-0.83572 0.89155,-0.69283 0.97263,-1.02369 0.97263,-3.969593 v -3.213759 l -1.44706,-0.89723 -1.44704,-0.89724 0.005,-8.995989 0.005,-8.996003 1.48553,-0.748055 1.48554,-0.748046 -0.14953,-3.660142 c -0.11665,-2.855862 -0.29884,-3.776183 -0.82906,-4.18823 -1.08582,-0.843777 -7.38262,-1.234307 -12.46263,-0.772925 -5.04654,0.458337 -5.85236,0.461954 -11.45272,0.05135 -6.19879,-0.454443 -10.96379,-0.156831 -12.35265,0.771519 -0.98673,0.659556 -1.09749,0.974242 -1.2308,3.496736 -0.16692,3.158333 0.25713,4.259694 2.03285,5.279903 l 1.21447,0.697742 v 8.709489 8.709481 l -1.65379,1.39421 -1.65378,1.39421 v 2.863162 c 0,3.61978 0.52858,4.25878 3.77476,4.5633 3.34851,0.31414 8.05726,0.295 11.52273,-0.0468 z m 46.05531,0.0555 c 3.48924,-0.33775 3.97162,-0.89817 3.97162,-4.61414 v -2.905332 l -1.59005,-1.15547 -1.59005,-1.15547 0.19712,-8.915672 0.19711,-8.915677 h 1.34009 c 1.24278,0 1.35921,0.09293 1.60341,1.279657 0.38585,1.87506 1.53555,2.334359 5.95462,2.378853 4.30076,0.04331 5.6825,-0.211279 6.36292,-1.172334 0.69372,-0.979843 0.99344,-8.954454 0.3949,-10.506882 -0.788,-2.043846 -1.11247,-2.088001 -16.14334,-2.196858 -9.38018,-0.06797 -13.74528,0.01316 -14.5442,0.270358 -1.4688,0.472787 -2.44137,2.330299 -2.44137,4.662822 0,2.22142 0.78004,3.700792 2.43389,4.615933 l 1.28713,0.712207 v 8.724398 8.724395 l -1.75048,1.17155 -1.75046,1.17156 -0.004,2.692629 c -0.005,3.142603 0.32529,4.293073 1.3309,4.638823 1.89513,0.65158 10.22961,0.93127 14.74036,0.49465 z m 52.57601,-0.49607 c 1.19526,-0.60859 1.5698,-2.00622 1.34949,-5.035913 -0.16203,-2.228399 -0.20862,-2.312179 -1.91929,-3.451769 l -1.75322,-1.16794 0.11563,-7.068285 0.11564,-7.068278 1.86051,0.160636 c 2.56245,0.221256 6.59291,0.169485 7.94344,-0.102038 1.70386,-0.342548 2.08271,-1.831995 1.91554,-7.530968 -0.1219,-4.155879 -0.25188,-4.959831 -0.88085,-5.448445 -0.68006,-0.528302 -2.07669,-0.580757 -17.83406,-0.669834 l -17.0962,-0.09665 -1.18445,0.790938 -1.18445,0.790946 -0.13587,4.582549 c -0.23264,7.846586 -0.28371,7.790281 6.92476,7.634939 l 5.20103,-0.112076 0.13538,2.570284 c 0.21181,4.021237 -0.36464,11.723672 -0.90314,12.067762 -0.25991,0.16607 -0.9377,0.57807 -1.50619,0.91556 -0.95906,0.56934 -1.04366,0.84236 -1.1729,3.785239 -0.22241,5.064343 0.38335,5.306343 12.68986,5.069603 4.81061,-0.0925 6.58403,-0.24185 7.31934,-0.61626 z m 33.31937,0.48229 c 4.7085,-0.3851 6.59572,-1.14133 8.16004,-3.2698 0.66167,-0.90029 3.20392,-6.283802 5.64946,-11.963351 2.44553,-5.67956 4.77689,-10.842569 5.18078,-11.473361 0.40389,-0.630784 1.49188,-1.536451 2.41776,-2.012592 l 1.68341,-0.865708 v -3.229441 c 0,-1.776177 -0.18824,-3.502743 -0.41831,-3.836818 -0.66678,-0.968167 -3.05892,-1.274365 -9.97071,-1.276282 -4.77591,-0.0015 -6.84358,0.122338 -7.92694,0.474096 -1.29454,0.420325 -1.63679,0.420325 -2.93133,0 -1.11509,-0.362058 -3.29285,-0.475885 -9.10464,-0.475885 -7.4779,0 -7.66342,0.01632 -8.799,0.775015 -1.09719,0.73304 -1.16779,0.941951 -1.30335,3.856516 l -0.14332,3.081481 1.59039,1.135803 c 0.8747,0.624686 1.98088,1.418384 2.45817,1.763774 0.73478,0.531716 5.86561,9.458009 8.84209,15.382899 1.0144,2.019232 0.90912,2.133242 -2.24809,2.434082 -5.466,0.52083 -5.75654,0.75458 -5.94818,4.785679 -0.121,2.545283 -0.0299,3.054013 0.66649,3.722323 1.2248,1.1754 5.56497,1.52973 12.14528,0.99154 z"
     id="path3789"
     inkscape:connector-curvature="0" />
  <path
     style="fill:#00aad4;stroke-width:0.36446419"
     d="m 470.59306,161.45248 c -61.33085,-5.12532 -223.71329,-25.97393 -233.76634,-30.01375 -1.73535,-0.69735 -1.92229,-1.05098 -2.47068,-4.67359 -1.63367,-10.79177 -4.31673,-22.39909 -6.29372,-27.227473 -3.05131,-7.452175 -9.31928,-14.582914 -17.5266,-19.939083 -8.44814,-5.513316 -16.15606,-8.703038 -32.35214,-13.388099 l -2.99748,-0.867084 v -1.358689 c 0,-1.39898 0.57536,-4.262717 1.27913,-6.366551 0.50954,-1.523227 -0.17935,-1.388139 18.35954,-3.600394 70.0168,-8.355129 123.16496,-13.961845 150.90769,-15.919561 14.18835,-1.001233 26.58463,-1.732108 60.15635,-3.546796 34.27789,-1.852851 79.56196,-3.56514 81.95291,-3.098811 0.81898,0.159733 1.09317,0.462254 1.28014,1.412452 1.80816,9.189178 -0.89264,87.250899 -4.08803,118.157149 -0.72419,7.00443 -1.27276,10.08004 -1.90318,10.67033 -0.58791,0.55048 -3.81791,0.48863 -12.53759,-0.24005 z M 365.69584,129.79083 c 0.52158,-0.0839 1.12355,-0.51726 1.3437,-0.96723 0.5823,-1.19018 0.46318,-10.5967 -0.15735,-12.42486 -0.75184,-2.215 -1.36225,-2.55463 -4.89367,-2.72283 -3.95346,-0.1883 -5.13572,0.17773 -5.68392,1.75973 -0.23419,0.67587 -0.67952,1.49849 -0.98961,1.82804 -0.54444,0.57859 -0.60984,0.57273 -1.9036,-0.17058 -1.12036,-0.64368 -1.82506,-0.76974 -4.30264,-0.76974 -2.48164,0 -3.17687,0.12479 -4.2806,0.7684 l -1.31777,0.76842 -1.29799,-0.84873 c -1.21077,-0.7917 -1.57157,-0.84874 -5.36901,-0.84874 -3.81245,0 -4.15468,0.0547 -5.38826,0.86132 l -1.31724,0.86132 -0.75782,-0.781 c -0.68858,-0.70966 -1.10418,-0.79138 -4.54986,-0.89465 -3.31412,-0.0993 -3.93668,-0.0305 -4.93965,0.54567 -1.14324,0.65683 -1.15362,0.65696 -2.72768,0.0333 -2.16907,-0.85936 -6.83103,-0.86412 -8.98894,-0.009 -1.54164,0.61078 -1.5754,0.61044 -3.45034,-0.0341 -2.3613,-0.81168 -6.26442,-0.90089 -7.68863,-0.17572 -1.26012,0.64161 -1.53615,2.04871 -1.53615,7.8306 0,5.04147 0.32898,5.57765 3.42229,5.57765 2.1598,0 3.42201,-0.64176 4.23461,-2.15307 0.33896,-0.63044 1.26652,-1.70551 2.06122,-2.38907 0.98546,-0.84765 1.45802,-1.57458 1.48613,-2.2861 0.0227,-0.57379 0.19569,-1.40471 0.3845,-1.84647 0.2119,-0.49575 0.31482,0.75165 0.26887,3.25875 -0.097,5.29509 0.0166,5.41678 5.05437,5.41399 2.38046,-0.002 3.95385,-0.16419 4.76608,-0.49334 1.08857,-0.44111 1.3747,-0.44091 2.79912,0.002 0.87265,0.27133 2.76622,0.49332 4.20796,0.49332 2.11429,0 2.91595,-0.15535 4.14444,-0.80321 0.83772,-0.44177 1.62754,-0.80322 1.75516,-0.80322 0.12763,0 0.78482,0.36145 1.46043,0.80322 1.12903,0.73826 1.55902,0.80321 5.31672,0.80321 3.95237,0 4.1353,-0.032 5.49995,-0.96312 1.25544,-0.85658 1.47096,-0.90755 1.94815,-0.46075 1.64026,1.53585 5.4082,1.86236 8.41065,0.72881 1.78715,-0.67473 1.87412,-0.67822 2.97196,-0.11923 1.88006,0.95727 6.25089,1.23126 10.00442,0.62714 z m 19.61014,-0.38148 c 1.84066,-0.48554 1.99734,-0.48105 2.79567,0.0804 0.73754,0.51869 1.09299,0.5508 2.77869,0.25103 1.20338,-0.21398 2.30405,-0.23408 2.91611,-0.0532 1.71036,0.50531 4.0515,0.33563 5.2195,-0.37832 l 1.09412,-0.66879 -0.2712,-3.94221 c -0.28336,-4.11893 0.0201,-5.02296 1.21148,-3.6099 0.34473,0.40885 0.8557,1.33709 1.13549,2.06277 0.43005,1.11543 0.40407,1.52263 -0.16812,2.63388 -0.92143,1.78957 -0.85299,2.4789 0.33801,3.40443 0.69069,0.53673 1.4768,0.7886 2.46122,0.7886 3.17448,0 4.309,-0.96416 6.23783,-5.30121 1.23534,-2.77768 2.15102,-4.33735 2.54645,-4.33735 0.13705,0 0.11773,1.84688 -0.0429,4.10419 -0.36792,5.1695 -0.23682,5.3166 4.8872,5.48394 l 3.37466,0.11021 1.75758,-1.2347 1.75757,-1.23472 -0.41847,-4.39217 c -0.47552,-4.99085 -0.75817,-5.78444 -2.34862,-6.59425 -1.35502,-0.68993 -5.60952,-0.66608 -7.79559,0.0437 -1.18691,0.38537 -1.66776,0.37908 -3.53504,-0.0463 -2.63038,-0.5992 -8.29768,-0.44339 -10.04574,0.27618 -1.07752,0.44355 -1.31504,0.43439 -2.67145,-0.103 -1.06159,-0.42059 -2.39967,-0.58984 -4.66314,-0.58984 -4.64305,0 -4.83603,0.17997 -5.26641,4.91113 -0.19533,2.14721 -0.55778,3.95239 -0.83716,4.16949 -0.75165,0.5841 -1.82073,-0.0936 -2.49954,-1.58451 -0.55075,-1.2096 -0.52135,-1.37665 0.53846,-3.05997 1.20209,-1.9093 1.16425,-3.24405 -0.10684,-3.76771 -0.37179,-0.15317 -2.6295,-0.37722 -5.01715,-0.49789 l -4.34118,-0.2194 -1.36718,0.90797 -1.36719,0.90797 0.59233,2.6328 c 0.39148,1.7401 0.47564,3.10184 0.24821,4.01608 -0.59596,2.39561 -0.45627,3.96105 0.40766,4.5686 1.61801,1.13789 6.66533,1.26429 10.4647,0.26208 z m -97.10264,-0.0945 1.08497,-0.6632 -0.26418,-4.28037 -0.26416,-4.28037 1.75937,-0.23098 c 2.70522,-0.35517 3.32568,-1.0383 3.32568,-3.66157 0,-1.70045 -0.18314,-2.38919 -0.79024,-2.9719 -0.73998,-0.71024 -1.11523,-0.76556 -5.89989,-0.86981 -4.60502,-0.10033 -5.20972,-0.0483 -6.12298,0.52632 l -1.01333,0.63764 0.11302,7.66647 c 0.10742,7.28564 0.1553,7.6944 0.96406,8.22871 1.27785,0.84422 5.66332,0.78194 7.10768,-0.10094 z m -2.16943,-25.06121 c 0.36669,-0.15079 1.29319,-0.14837 2.06723,0.005 2.31768,0.4604 11.1372,0.68215 14.0128,0.35231 3.78448,-0.43409 4.13446,-0.84514 4.13446,-4.856053 v -3.163569 l -1.44706,-0.89722 -1.44704,-0.89724 0.005,-8.995992 0.005,-8.995996 1.49255,-0.751633 1.49255,-0.751618 -0.18105,-3.675621 c -0.13797,-2.801069 -0.33836,-3.797866 -0.8422,-4.189396 -1.00009,-0.777165 -7.23272,-1.124901 -12.3901,-0.691276 -2.34262,0.196964 -5.18957,0.312325 -6.32654,0.256358 -1.13697,-0.05594 -5.36466,-0.114105 -9.39484,-0.129209 -7.09589,-0.02662 -7.35739,-0.0045 -8.26892,0.703839 -0.81984,0.636934 -0.95964,1.120744 -1.08345,3.749576 l -0.14215,3.018291 1.69257,1.426918 1.69258,1.426917 v 8.60285 8.602842 l -1.69258,1.42692 -1.69257,1.42692 0.14215,3.015742 c 0.17188,3.64638 0.54808,4.05972 3.97723,4.36991 2.9362,0.26559 13.29183,-0.019 14.19417,-0.38997 z m 45.52651,-0.0166 c 1.15957,-0.48224 1.56195,-1.64926 1.56195,-4.530073 v -2.598719 l -1.61913,-1.16158 -1.61914,-1.16158 0.23539,-8.909561 0.2354,-8.909566 h 1.3309 c 1.23205,0 1.35045,0.09504 1.59421,1.27965 0.39201,1.905005 1.43246,2.290596 6.20136,2.298196 4.5793,0.0075 5.45279,-0.151094 6.11942,-1.109638 0.68969,-0.991684 0.98108,-9.147742 0.3776,-10.568713 -0.82246,-1.936582 -1.25641,-1.994134 -15.95686,-2.116337 -8.39895,-0.06977 -13.63755,0.01045 -14.34561,0.219813 -1.59681,0.472125 -2.44301,1.667984 -2.6895,3.800793 -0.30162,2.609759 0.40474,4.379728 2.16399,5.422462 l 1.43415,0.850047 v 8.708136 8.708128 l -1.70771,1.14294 -1.70772,1.14294 0.0139,3.163079 c 0.0174,3.995893 0.43079,4.426573 4.54922,4.740003 3.62618,0.27598 12.835,0.002 13.82825,-0.41041 z m 46.76822,0.38199 c 1.99147,-0.16226 3.48955,-0.45686 3.88465,-0.76388 0.84851,-0.65937 1.21052,-4.867693 0.5521,-6.418022 -0.26697,-0.62861 -1.12703,-1.52321 -1.91125,-1.98804 l -1.42586,-0.84512 v -7.238114 -7.238101 l 1.29593,0.221181 c 0.71275,0.121653 2.97173,0.217067 5.01995,0.212023 5.54247,-0.01361 5.46733,0.08213 5.46733,-6.967179 0,-4.947938 -0.0861,-5.668528 -0.73785,-6.174975 -0.6799,-0.528317 -2.08018,-0.581396 -17.82556,-0.675676 l -17.08771,-0.102323 -1.19294,0.797396 -1.19294,0.797397 v 5.455948 c 0,7.190036 -0.28024,6.912243 6.81876,6.759306 l 5.17116,-0.111406 -0.05,6.64027 c -0.0275,3.652142 -0.16257,6.988803 -0.30016,7.414803 -0.13759,0.426 -0.70972,0.93726 -1.27139,1.13613 -1.39826,0.49508 -2.02496,2.31735 -1.8298,5.320612 0.20003,3.07803 0.68445,3.51473 4.1894,3.77658 3.87595,0.28958 8.80707,0.28608 12.4262,-0.009 z m 40.33903,-0.52545 c 2.49314,-0.57534 4.29979,-2.05203 5.63527,-4.606063 0.58672,-1.122059 2.89837,-6.267296 5.13702,-11.433861 2.23864,-5.166572 4.35503,-9.821713 4.7031,-10.344768 0.34807,-0.523055 1.40534,-1.348261 2.34948,-1.833792 l 1.71664,-0.88279 -0.13917,-3.495919 c -0.0804,-2.021303 -0.33582,-3.648425 -0.60541,-3.857449 -0.8626,-0.668804 -3.63334,-0.938755 -9.71454,-0.946461 -4.18665,-0.0053 -6.55775,0.132547 -7.70907,0.44821 -1.44584,0.396409 -1.89417,0.393898 -3.43727,-0.01917 -1.37584,-0.368358 -3.47331,-0.452743 -9.3351,-0.375561 -9.47458,0.124759 -9.36745,0.07496 -9.58684,4.452686 -0.16416,3.275581 0.17868,3.949656 2.6004,5.112734 1.06594,0.511943 1.84677,1.330113 2.87095,3.008239 2.26265,3.707371 7.70243,13.987506 7.80744,14.754563 0.0879,0.64186 -0.18754,0.73789 -3.14288,1.09582 -5.26517,0.63768 -5.91207,1.32097 -5.57959,5.893452 0.19511,2.68335 0.75254,3.24562 3.54258,3.57338 2.73582,0.32139 10.57174,-0.009 12.88699,-0.54319 z"
     id="path3791"
     inkscape:connector-curvature="0" />
  <path
     style="fill:#ff2a2a;stroke-width:0.25771511"
     d="m 213.84859,156.39117 c -0.98009,-0.10242 -1.7097,-0.31585 -1.949,-0.57017 -0.21035,-0.22355 -0.47757,-1.2931 -0.5938,-2.37678 -0.31635,-2.94943 0.0681,-24.58096 0.58207,-32.75366 0.5767,-9.16977 1.56073,-22.985152 1.80404,-25.328112 l 0.18844,-1.814647 0.91357,0.826587 c 0.50245,0.45463 1.61447,1.85983 2.47114,3.12269 1.16877,1.722929 1.51751,2.451619 1.39708,2.919112 -0.97767,3.79502 -2.52759,30.31861 -2.49903,42.76551 0.0171,7.47299 0.12956,8.14025 1.50482,8.93253 1.27026,0.73177 13.46901,0.9654 33.12158,0.63434 19.61589,-0.33045 50.2993,-1.06817 58.47006,-1.40579 6.85132,-0.28311 6.55436,-0.3032 20.61069,1.39452 4.10021,0.49523 7.94883,0.95932 8.55249,1.03134 1.47903,0.17645 1.14929,0.46158 -0.72825,0.62975 -3.46978,0.31078 -20.71627,0.83061 -54.16175,1.63251 -15.47158,0.37095 -67.0308,0.63751 -69.68415,0.36027 z"
     id="path3795"
     inkscape:connector-curvature="0" />
  <path
     style="fill:#ff2a2a;stroke-width:0.36446419"
     d="m 220.09251,43.515994 c -1.02276,-0.216301 -0.95345,-2.787554 0.31465,-11.672181 1.7855,-12.509734 3.25344,-20.079992 3.95944,-20.419059 0.45469,-0.218369 11.57829,1.335616 24.56375,3.431616 18.92207,3.054227 78.53754,13.564127 87.65049,15.452337 2.94068,0.609304 3.17778,0.712312 2.13751,0.928658 -0.64354,0.133841 -3.62034,0.412213 -6.61513,0.618612 -6.32815,0.436129 -5.81138,0.502838 -28.39131,-3.664727 -22.07982,-4.075264 -53.11477,-9.344476 -65.73167,-11.160142 -5.08249,-0.731408 -8.46126,-0.834281 -9.3151,-0.283612 -1.12895,0.728093 -1.78698,3.827333 -3.48848,16.430429 -0.89568,6.634412 -1.4832,9.574881 -1.98945,9.957178 -0.4435,0.33491 -2.25683,0.55809 -3.0947,0.380891 z"
     id="path3797"
     inkscape:connector-curvature="0" />
  <path
     style="fill:#ff2a2a;stroke-width:0.36446419"
     d="m 496.37761,126.72372 c 0,-8.252 1.38102,-25.67209 2.30929,-29.129142 0.97664,-3.63719 4.26581,-19.13033 4.67073,-22.000766 0.47938,-3.398212 0.0661,-4.688673 -1.72784,-5.394592 -2.29129,-0.90166 -2.77151,-1.401385 -2.77151,-2.884187 0,-0.757361 0.18776,-1.467193 0.41723,-1.577403 0.35592,-0.170936 9.68647,2.123727 10.17307,2.501859 0.0937,0.07285 -0.1149,1.85334 -0.46354,3.956742 -0.76695,4.627016 -12.15785,58.040009 -12.42134,58.244759 -0.10235,0.0795 -0.18609,-1.59324 -0.18609,-3.71727 z"
     id="path3799"
     inkscape:connector-curvature="0" />
  <path
     style="fill:#ff2a2a;stroke-width:0.36446419"
     d="m 242.93539,184.16993 c 0,-0.50993 0.27793,-1.34125 0.61762,-1.84739 0.97515,-1.45299 0.84696,-8.85902 -0.18264,-10.55127 -1.03798,-1.70602 -0.56341,-2.41721 1.61298,-2.41721 2.81698,0 2.79769,-0.0278 2.58257,3.73065 l -0.19353,3.38156 1.60587,-0.10228 1.60587,-0.10229 -0.0683,-3.3084 -0.0684,-3.3084 2.3383,0.0956 c 2.72958,0.11152 3.06598,0.54748 1.88628,2.44442 -1.07717,1.73206 -1.09188,8.8761 -0.0209,10.14628 0.40589,0.4814 0.68016,1.26452 0.60947,1.74026 -0.1207,0.81234 -0.27118,0.87083 -2.47175,0.96056 -2.76396,0.11273 -2.9705,-0.14718 -2.11858,-2.66584 0.29884,-0.88354 0.43189,-2.1486 0.29565,-2.81125 -0.23902,-1.16255 -0.30654,-1.20482 -1.92452,-1.20482 h -1.67682 l 0.22156,3.3735 0.22156,3.3735 h -2.43614 c -2.40974,0 -2.43613,-0.0101 -2.43613,-0.92713 z"
     id="path3801"
     inkscape:connector-curvature="0" />
  <path
     style="fill:#0088aa;stroke-width:0.36446419"
     d="m 243.38605,184.64997 c -0.36433,-0.34113 -0.32876,-0.77893 0.15008,-1.84739 0.87731,-1.95757 0.86498,-8.56541 -0.0203,-10.88197 -0.62126,-1.62569 -0.61664,-1.75138 0.079,-2.14667 0.95041,-0.54006 2.28679,-0.53538 3.24899,0.0114 0.67297,0.3824 0.73528,0.78272 0.55008,3.53414 l -0.20886,3.1029 h 1.8029 1.8029 v -3.41097 c 0,-3.38052 0.008,-3.40924 0.93025,-3.21724 0.51164,0.10655 1.46224,0.1957 2.11245,0.19811 1.10114,0.004 1.16758,0.076 0.96873,1.04856 -0.11742,0.5743 -0.41242,1.6225 -0.65554,2.32933 -0.56972,1.65627 -0.56972,6.37586 0,8.03214 0.24312,0.70682 0.53812,1.75502 0.65554,2.32932 l 0.21348,1.04417 h -2.37328 -2.37328 l 0.28293,-1.20481 c 0.64389,-2.74182 0.74109,-3.61666 0.48864,-4.39827 -0.23374,-0.72371 -0.48028,-0.82262 -2.05047,-0.82262 h -1.78477 l 0.19306,3.3735 0.19308,3.3735 h -1.86408 c -1.088,0 -2.06287,-0.18614 -2.34156,-0.44709 z"
     id="path3803"
     inkscape:connector-curvature="0" />
  <path
     style="fill:#0088aa;stroke-width:0.36446419"
     d="m 261.68956,184.93723 c 0.51879,-1.0506 0.75396,-8.29647 0.35455,-10.92453 -0.21485,-1.41365 -0.34476,-2.61365 -0.28869,-2.66664 0.056,-0.053 1.04876,0.001 2.20599,0.12053 2.42941,0.25044 3.0311,0.95242 1.93283,2.25496 -1.20292,1.42666 -1.36487,5.59236 -0.21741,5.59236 0.21979,0 0.96849,-0.87571 1.66376,-1.94604 1.13181,-1.74231 1.23577,-2.14103 0.993,-3.8085 -0.30568,-2.09962 -0.0351,-2.29565 2.71611,-1.96801 1.70396,0.20294 2.09974,1.11183 1.03436,2.37537 -0.96332,1.14249 -0.96332,7.62417 0,8.76666 0.36879,0.43738 0.61251,1.11199 0.54161,1.49914 -0.111,0.60604 -0.42752,0.7173 -2.27719,0.80039 l -2.14828,0.0965 0.27577,-2.34551 c 0.57138,-4.85939 0.24027,-5.47646 -1.65354,-3.08175 -1.36014,1.71989 -1.45736,2.24195 -0.68973,3.70365 0.70502,1.34245 0.29635,1.65211 -2.52282,1.91156 -2.01781,0.18571 -2.18356,0.1529 -1.92032,-0.38015 z"
     id="path3805"
     inkscape:connector-curvature="0" />
  <path
     style="fill:#0088aa;stroke-width:0.36446419"
     d="m 279.00853,185.08705 c -0.9431,-0.29459 -1.32474,-1.69032 -0.56229,-2.0565 0.20237,-0.0972 0.86226,-1.33477 1.4664,-2.75016 1.24577,-2.91861 1.09961,-4.03884 -0.77635,-5.95011 -1.05461,-1.07444 -1.39817,-2.52593 -0.67957,-2.87105 0.80685,-0.38751 2.85711,1.49963 4.16845,3.83682 0.75079,1.33811 1.56979,2.38072 1.82002,2.3169 0.75901,-0.1936 0.78813,-2.75984 0.0413,-3.64549 -0.36913,-0.43778 -0.61313,-1.11272 -0.54222,-1.49986 0.10828,-0.59132 0.43464,-0.71929 2.04066,-0.80017 1.28368,-0.0647 1.97794,0.0409 2.11321,0.32129 0.1108,0.22965 0.0238,1.47628 -0.19341,2.77027 -0.59118,3.52236 0.17869,3.56756 2.18543,0.12832 1.48515,-2.54529 2.27537,-3.28425 3.51211,-3.28425 1.20842,0 1.61471,0.87666 0.8027,1.73202 -2.52099,2.65562 -2.68305,2.91053 -2.68305,4.22045 0,0.78868 0.46018,2.14055 1.09604,3.21986 0.60282,1.02323 1.11446,2.37804 1.13697,3.01071 0.0402,1.12942 0.009,1.15211 -1.7162,1.24912 l -1.75714,0.0988 -0.006,-2.02651 c -0.007,-2.18631 -0.64574,-3.56701 -1.72611,-3.72869 -0.99739,-0.14927 -1.24873,0.88845 -0.77215,3.18809 0.23424,1.13029 0.26322,2.15125 0.0654,2.30494 -0.19529,0.15176 -1.13854,0.35759 -2.09609,0.45739 l -1.74103,0.18147 0.3328,-1.89357 c 0.61359,-3.49134 0.14683,-4.86189 -1.39792,-4.10468 -0.92702,0.4544 -1.311,2.0288 -0.90985,3.7306 0.47626,2.02047 -0.63008,2.65362 -3.22211,1.844 z"
     id="path3807"
     inkscape:connector-curvature="0" />
  <path
     style="fill:#0088aa;stroke-width:0.36446419"
     d="m 299.85308,184.88286 c -0.48857,-0.37965 -0.29432,-1.39267 0.43227,-2.25441 1.03655,-1.22933 1.04769,-7.31401 0.0156,-8.53815 -0.955,-1.13276 -0.955,-2.47174 0,-2.53568 1.53637,-0.10288 3.22569,0.11381 3.70742,0.47558 0.39498,0.29661 0.37664,0.65416 -0.0852,1.66213 -1.0734,2.34266 -0.571,4.01516 1.2061,4.01516 1.32581,0 1.53394,-0.61124 1.21621,-3.57182 l -0.2718,-2.53261 h 2.08244 c 2.56408,0 2.89959,0.46138 1.75515,2.4136 -1.16547,1.98808 -1.16547,6.67872 0,8.6668 1.14412,1.95168 0.80871,2.4136 -1.75255,2.4136 h -2.07987 l 0.26486,-2.65061 c 0.29293,-2.93167 0.0262,-3.56251 -1.43823,-3.40161 -0.96384,0.1059 -0.98553,0.17778 -0.93006,3.08033 l 0.0568,2.97189 h -1.95177 c -1.07347,0 -2.0758,-0.0964 -2.2274,-0.2142 z"
     id="path3809"
     inkscape:connector-curvature="0" />
  <path
     style="fill:#0088aa;stroke-width:0.36446419"
     d="m 317.14889,185.20212 c -0.79528,-0.12378 -0.82689,-0.3858 -0.82689,-6.85579 0,-7.39251 -0.13629,-7.03865 2.61572,-6.79099 l 1.37538,0.12377 -0.2916,3.49612 c -0.34736,4.16479 0.0818,4.49806 1.90127,1.47659 1.06749,-1.77269 1.15764,-2.13996 0.73753,-3.00484 -0.75435,-1.55303 -0.26898,-2.04392 2.021,-2.04392 h 1.97685 v 6.747 6.747 h -1.91325 c -2.51464,0 -3.02521,-0.47818 -2.27494,-2.13064 0.81215,-1.78877 1.28703,-5.25893 0.71968,-5.25893 -0.54242,0 -2.23916,2.03939 -2.80527,3.37178 -0.26958,0.63449 -0.26932,1.38916 8.3e-4,2.21597 0.35101,1.07464 0.30023,1.31591 -0.35539,1.68845 -0.75652,0.42988 -1.27156,0.46893 -2.88083,0.21843 z"
     id="path3811"
     inkscape:connector-curvature="0" />
  <path
     style="fill:#0088aa;stroke-width:0.36446419"
     d="m 332.81081,184.53481 c 0.61225,-2.12885 0.77779,-8.99169 0.25755,-10.67692 -0.46638,-1.51073 -0.45058,-1.76145 0.13186,-2.0924 0.36395,-0.20681 1.25279,-0.3086 1.97519,-0.22621 l 1.31344,0.1498 -0.28339,3.68355 c -0.3235,4.20497 -0.005,4.50523 1.94306,1.83106 1.00686,-1.38222 1.12625,-1.82196 0.93502,-3.44367 -0.19601,-1.66233 -0.12976,-1.88483 0.62595,-2.10207 0.46485,-0.13363 1.48599,-0.18483 2.26919,-0.11378 1.63692,0.1485 1.71449,0.41639 0.79937,2.76056 -0.81909,2.09822 -0.77991,5.87057 0.0872,8.3995 0.38661,1.1275 0.59789,2.13163 0.46952,2.23139 -0.12839,0.0998 -1.2183,0.27203 -2.42203,0.38282 -2.16035,0.19882 -2.18501,0.19144 -1.91007,-0.57223 0.1532,-0.42551 0.39829,-2.20302 0.54464,-3.95003 0.30775,-3.67341 -0.14598,-3.9818 -1.91082,-1.29875 -0.85731,1.30335 -1.0235,1.9673 -0.93924,3.75224 l 0.10237,2.16867 h -2.12148 c -2.1003,0 -2.11894,-0.009 -1.86738,-0.88353 z"
     id="path3813"
     inkscape:connector-curvature="0" />
  <path
     style="fill:#0088aa;stroke-width:0.36446419"
     d=""
     id="path3815"
     inkscape:connector-curvature="0" />
  <path
     style="fill:#0088aa;stroke-width:0.36446419"
     d=""
     id="path3817"
     inkscape:connector-curvature="0" />
  <path
     style="fill:#0088aa;stroke-width:0.36446419"
     d="m 335.47943,169.95371 c -1.23994,-0.35291 -1.82756,-1.183 -1.18881,-1.67937 0.29007,-0.2254 0.79194,-0.0559 1.5866,0.53565 1.38797,1.03336 2.10337,1.07884 3.50384,0.22278 0.57817,-0.3534 1.44703,-0.64256 1.9308,-0.64256 0.7352,0 0.81077,0.0999 0.46033,0.60878 -0.781,1.13401 -3.96537,1.61713 -6.29276,0.95472 z"
     id="path3819"
     inkscape:connector-curvature="0" />
  <path
     style="fill:#0088aa;stroke-width:0.36446419"
     d="m 357.69902,184.56498 c -0.14451,-0.29265 0.0315,-1.22078 0.3914,-2.06254 0.51485,-1.20453 0.61384,-2.47673 0.46485,-5.97395 -0.1041,-2.44393 -0.31968,-5.05796 -0.47905,-5.80897 l -0.28977,-1.36546 h 2.29524 2.29526 l -0.0812,3.45382 -0.0813,3.45382 1.60588,0.10229 1.60587,0.10228 -0.19433,-3.39546 -0.19433,-3.39546 h 2.41283 c 2.36699,0 2.41284,0.0171 2.41284,0.8996 0,0.49477 -0.23257,1.08012 -0.51682,1.30076 -0.34845,0.27049 -0.56309,1.85105 -0.6589,4.8519 -0.11677,3.658 -0.0188,4.65244 0.54954,5.58332 0.38039,0.62292 0.63038,1.4685 0.55553,1.87904 -0.12154,0.66672 -0.38537,0.75663 -2.46984,0.84179 l -2.33377,0.0953 0.22255,-3.38852 0.22255,-3.38852 h -1.77545 -1.77545 l 0.24583,3.3735 0.24584,3.3735 h -2.20654 c -1.6724,0 -2.27014,-0.1288 -2.46928,-0.53208 z"
     id="path3821"
     inkscape:connector-curvature="0" />
  <path
     style="fill:#0088aa;stroke-width:0.36446419"
     d="m 378.69212,185.19599 c -0.48789,-0.0741 -1.2321,-0.43115 -1.65378,-0.79332 -0.681,-0.58488 -0.76556,-1.23831 -0.75642,-5.84551 0.0117,-5.89569 0.21221,-6.41817 2.68386,-6.99363 2.03331,-0.4734 4.70705,0.0436 5.39556,1.04334 0.29592,0.42967 0.40644,2.56526 0.31683,6.12199 -0.13331,5.29115 -0.16818,5.48134 -1.11368,6.07581 -0.93164,0.58575 -2.67312,0.72562 -4.87237,0.39132 z m 3.57448,-6.3026 c 0,-3.22099 -0.14703,-4.42982 -0.59595,-4.8996 -0.76873,-0.80445 -1.89839,-0.33092 -2.40315,1.00735 -0.4499,1.1928 0.0111,7.21131 0.59427,7.75729 0.24136,0.22601 0.88119,0.41091 1.42184,0.41091 h 0.98299 z"
     id="path3823"
     inkscape:connector-curvature="0" />
  <path
     style="fill:#0088aa;stroke-width:0.36446419"
     d="m 392.1893,185.15367 c -1.73414,-0.26035 -2.08723,-1.17159 -0.96822,-2.49874 1.05162,-1.2472 1.06977,-7.34101 0.0256,-8.57944 -0.39111,-0.46386 -0.71112,-1.19722 -0.71112,-1.62966 0,-0.66993 0.25042,-0.81917 1.69223,-1.00846 0.93072,-0.1222 2.6949,-0.12482 3.9204,-0.006 3.23671,0.31426 4.06847,1.21687 3.71087,4.02695 -0.34819,2.73623 -0.34883,3.2756 -0.007,5.94379 0.3901,3.04604 -0.24,3.69511 -3.74273,3.85546 -1.36004,0.0623 -3.12398,0.0154 -3.91986,-0.10406 z m 4.76603,-3.2974 c 0.15062,-0.36878 0.15473,-1.16395 0.009,-1.76707 -0.21199,-0.8781 -0.45811,-1.09657 -1.23538,-1.09657 -1.02721,0 -1.47256,0.53441 -1.47256,1.76707 0,1.23005 0.44474,1.76708 1.46344,1.76708 0.61175,0 1.06114,-0.24391 1.23537,-0.67051 z m -0.035,-4.99323 c 0.35539,-1.10032 -0.0774,-2.58942 -0.81656,-2.80985 -0.81684,-0.24358 -1.84721,0.65448 -1.84721,1.61001 0,1.91545 2.1237,2.87202 2.66377,1.19984 z"
     id="path3825"
     inkscape:connector-curvature="0" />
  <path
     style="fill:#0088aa;stroke-width:0.36446419"
     d="m 406.04111,184.39131 c 0.39415,-1.24148 0.43487,-9.3094 0.0559,-11.05977 -0.35573,-1.64276 -0.3546,-1.6452 0.82689,-1.77865 0.65072,-0.0735 2.63368,-0.0761 4.40658,-0.006 l 3.22345,0.12777 -0.12261,1.8084 c -0.13806,2.03621 -0.96541,2.53105 -2.26292,1.35346 -1.07631,-0.97684 -2.52793,-0.86681 -2.90529,0.22022 -0.58438,1.68335 -0.30057,6.27096 0.45851,7.41132 0.39024,0.58626 0.65172,1.38144 0.58107,1.76706 -0.11076,0.60459 -0.42923,0.71458 -2.31245,0.79863 -2.09702,0.0936 -2.17465,0.068 -1.94907,-0.64258 z"
     id="path3827"
     inkscape:connector-curvature="0" />
  <path
     style="fill:#0088aa;stroke-width:0.36446419"
     d="m 421.62427,184.8382 c -1.0888,-0.84611 -1.43192,-3.04006 -1.25394,-8.0181 0.12692,-3.54989 0.22661,-3.98305 1.06696,-4.63527 1.3296,-1.03195 5.08538,-1.03195 6.41498,0 0.84035,0.65222 0.94005,1.08538 1.06697,4.63527 0.15859,4.43595 -0.14541,6.97635 -0.93531,7.8158 -0.38326,0.4073 -1.26544,0.61529 -3.03053,0.71451 -2.09834,0.11795 -2.62186,0.0374 -3.32913,-0.51221 z m 3.64068,-1.98273 c 0.48379,-0.23717 0.65002,-1.17932 0.75593,-4.28431 0.11638,-3.41205 0.0352,-4.05839 -0.56833,-4.52743 -0.38727,-0.30093 -1.09954,-0.50331 -1.58283,-0.44973 -0.83825,0.0929 -0.88402,0.29199 -0.99379,4.3224 -0.096,3.52612 -0.006,4.31 0.54633,4.73896 0.76243,0.59248 0.99158,0.61737 1.84269,0.20011 z"
     id="path3829"
     inkscape:connector-curvature="0" />
  <path
     style="fill:#0088aa;stroke-width:0.36446419"
     d="m 434.8046,184.21352 c 1.01436,-3.42556 0.89433,-8.71661 -0.26934,-11.873 -0.34631,-0.93934 1.00481,-1.20749 4.58351,-0.90968 4.04191,0.33637 4.39686,0.68312 4.39686,4.29546 0,3.6249 -0.51328,4.44619 -2.96942,4.7514 -0.91073,0.11317 -1.77585,0.35661 -1.92248,0.54098 -0.14664,0.18438 -0.2234,1.15811 -0.17057,2.16385 0.10423,1.98465 -0.20361,2.22056 -2.91189,2.23143 -1.05184,0.005 -1.07986,-0.0414 -0.73667,-1.20044 z m 6.08497,-7.66991 c 0.10637,-2.02156 0.0289,-2.307 -0.66481,-2.44796 -1.55844,-0.3167 -2.14299,0.3048 -2.14299,2.2784 0,1.98547 0.51942,2.6994 1.85568,2.55057 0.73083,-0.0814 0.84632,-0.3702 0.95212,-2.38101 z"
     id="path3831"
     inkscape:connector-curvature="0" />
  <path
     style="fill:#0088aa;stroke-width:0.36446419"
     d="m 451.62127,185.0447 c -1.56428,-0.44394 -1.7563,-1.21882 -1.7563,-7.0874 0,-4.79291 0.0471,-5.08797 0.91967,-5.76599 0.72459,-0.56302 1.41168,-0.71822 3.23927,-0.73174 2.04262,-0.0151 2.43886,0.0905 3.31816,0.8843 0.96587,0.87196 0.99853,1.06973 0.99853,6.04523 0,2.82907 -0.18211,5.40822 -0.40471,5.73143 -0.77288,1.12223 -3.96866,1.58995 -6.31462,0.92417 z m 3.73411,-5.9258 c 0.12605,-4.241 -0.24469,-5.58812 -1.53789,-5.58812 -1.43009,0 -1.7727,1.09996 -1.61722,5.1922 0.15352,4.0411 0.4098,4.54701 2.21261,4.36788 0.76818,-0.0763 0.83509,-0.35833 0.9425,-3.97196 z"
     id="path3833"
     inkscape:connector-curvature="0" />
  <path
     style="fill:#0088aa;stroke-width:0.36446419"
     d="m 464.12885,185.61022 c 0,-1.48145 0.24587,-2.46639 0.83497,-3.34465 0.85444,-1.27387 2.04403,-5.04534 2.04575,-6.48579 3.9e-4,-0.44177 -0.25501,-1.3747 -0.56784,-2.07319 -0.91574,-2.0446 -0.72395,-2.13641 4.2483,-2.03368 l 4.39513,0.0908 -0.13542,5.14056 c -0.11222,4.25979 -0.026,5.25067 0.50365,5.78314 0.64388,0.64739 0.90604,3.47617 0.41443,4.47173 -0.40489,0.81991 -1.74136,0.58888 -2.41053,-0.41672 -0.75671,-1.13712 -1.34724,-1.32408 -4.18236,-1.32408 -2.16744,0 -2.23776,0.0285 -2.57412,1.04418 -0.2683,0.81016 -0.59526,1.06696 -1.45888,1.14584 -1.10828,0.10123 -1.11308,0.0926 -1.11308,-1.99814 z m 6.51177,-2.96466 c 0.89512,-0.18642 0.93025,-0.33084 0.93025,-3.82476 0,-1.99708 -0.11293,-3.85973 -0.25096,-4.13925 -0.33756,-0.68357 -1.2912,-0.64507 -1.58074,0.0638 -0.40801,0.99896 -1.42863,7.58085 -1.21682,7.84717 0.24057,0.30249 0.84737,0.31767 2.11827,0.053 z"
     id="path3835"
     inkscape:connector-curvature="0" />
  <path
     style="fill:#0088aa;stroke-width:0.36446419"
     d=""
     id="path3837"
     inkscape:connector-curvature="0" />
  <path
     style="fill:#0088aa;stroke-width:0.36446419"
     d="m 318.04469,124.80246 c -0.51348,-0.39903 -0.27929,-2.87209 0.33139,-3.49952 0.55334,-0.5685 0.60819,-0.43186 0.62017,1.54503 0.0121,1.99755 -0.23719,2.50961 -0.95156,1.95449 z"
     id="path3841"
     inkscape:connector-curvature="0" />
  <path
     style="fill:#0088aa;stroke-width:0.12885755"
     d="m 342.66591,124.80121 c -0.2063,-0.77228 -0.12764,-3.93512 0.10862,-4.36772 l 0.15512,-0.28398 0.17172,0.34078 c 0.40584,0.80534 0.31499,4.51825 -0.11881,4.85536 -0.0916,0.0712 -0.20368,-0.1216 -0.31665,-0.54444 z"
     id="path3845"
     inkscape:connector-curvature="0" />
  <path
     style="fill:#0088aa;stroke-width:0.12885755"
     d="m 330.47045,124.72158 c -0.42343,-1.15434 -0.70482,-3.99811 -0.4559,-4.60755 0.15427,-0.37773 0.46316,-0.29784 0.71123,0.18394 0.44996,0.87389 0.63641,3.87925 0.29909,4.82118 -0.12765,0.35648 -0.33141,0.21037 -0.55442,-0.39757 z"
     id="path3847"
     inkscape:connector-curvature="0" />
  <path
     style="fill:#0088aa;stroke-width:0.12885755"
     d="m 284.88354,81.447653 c -0.0476,-0.265523 -0.10104,-1.377304 -0.11857,-2.470621 -0.0296,-1.839581 -0.009,-2.015689 0.27117,-2.360989 0.35517,-0.437286 1.73331,-1.273943 2.09844,-1.273943 0.31571,0 1.41412,0.559405 1.94516,0.990654 0.60284,0.489545 0.70956,1.173882 0.54907,3.521234 -0.076,1.110796 -0.13965,2.03241 -0.14157,2.048025 -0.002,0.01564 -1.01902,0.02842 -2.26024,0.02842 h -2.25676 z"
     id="path3849"
     inkscape:connector-curvature="0" />
  <path
     style="fill:#0088aa;stroke-width:0.12885755"
     d="m 286.48716,96.015408 c -0.74031,-0.29494 -1.11828,-0.54188 -1.47253,-0.96201 -0.53617,-0.6359 -0.44187,-5.010203 0.11451,-5.3114 0.18749,-0.101497 4.16542,-0.04503 4.30196,0.06105 0.14583,0.113331 0.32887,4.19844 0.21023,4.69194 -0.1342,0.55822 -0.52153,0.94787 -1.35137,1.35945 -0.79193,0.3928 -1.1424,0.42409 -1.8028,0.16098 z"
     id="path3851"
     inkscape:connector-curvature="0" />
  <path
     style="fill:url(#meshgradient3874);fill-opacity:1;stroke-width:0.25771511"
     d="m 417.36872,79.408176 c -1.13563,-2.119841 -1.1666,-2.903306 -0.13961,-3.531068 0.96371,-0.589072 1.29625,-0.589072 2.25995,0 0.58659,0.358555 0.76845,0.670113 0.76255,1.306302 -0.009,0.991369 -1.17784,3.717296 -1.6456,3.83846 -0.18006,0.04661 -0.73684,-0.679525 -1.23729,-1.613694 z"
     id="path3853"
     inkscape:connector-curvature="0" />
</svg>
