<?xml version="1.0" standalone="no"?>
<!DOCTYPE svg PUBLIC "-//W3C//DTD SVG 20010904//EN"
 "http://www.w3.org/TR/2001/REC-SVG-20010904/DTD/svg10.dtd">
<svg version="1.0" xmlns="http://www.w3.org/2000/svg"
 width="1280.000000pt" height="640.000000pt" viewBox="0 0 1280.000000 640.000000"
 preserveAspectRatio="xMidYMid meet">
<metadata>
Created by potrace 1.15, written by Peter Selinger 2001-2017
</metadata>
<g transform="translate(0.000000,640.000000) scale(0.100000,-0.100000)"
fill="#000000" stroke="none">
<path d="M10537 4306 c-59 -22 -103 -61 -131 -118 -67 -134 1 -293 142 -334
133 -39 259 31 299 165 41 141 -64 286 -215 297 -34 3 -72 -1 -95 -10z"/>
<path d="M12069 4307 c-98 -37 -159 -126 -159 -229 1 -210 267 -314 412 -161
35 37 68 115 68 163 0 48 -33 126 -68 163 -60 64 -176 93 -253 64z"/>
<path d="M7392 4291 c-101 -35 -161 -119 -162 -224 0 -135 101 -237 237 -237
101 0 184 58 224 157 73 180 -113 370 -299 304z"/>
<path d="M8920 4291 c-131 -46 -196 -195 -139 -321 26 -58 53 -87 111 -116
175 -89 382 70 339 261 -32 142 -176 223 -311 176z"/>
<path d="M4205 4276 c-119 -52 -177 -199 -124 -316 27 -60 54 -88 114 -116
132 -62 282 -1 330 135 39 111 -11 233 -115 286 -56 28 -153 34 -205 11z"/>
<path d="M5723 4269 c-85 -42 -138 -135 -131 -230 12 -166 187 -267 341 -196
177 81 181 334 7 422 -65 33 -156 34 -217 4z"/>
<path d="M1069 4267 c-161 -60 -210 -254 -97 -382 49 -56 102 -79 178 -79 105
1 178 50 219 147 64 149 -41 311 -208 323 -33 3 -71 -1 -92 -9z"/>
<path d="M2598 4267 c-156 -59 -208 -252 -100 -377 50 -59 103 -84 182 -84
253 0 331 340 103 449 -48 24 -137 29 -185 12z"/>
<path d="M10560 3759 c-69 -5 -204 -16 -300 -24 -239 -22 -382 -34 -535 -45
-139 -10 -193 -18 -200 -30 -3 -4 10 -11 28 -14 41 -8 46 -13 252 -276 92
-118 172 -220 177 -227 7 -8 -1 -31 -23 -71 -31 -56 -35 -60 -77 -66 -25 -3
-162 -6 -306 -6 l-261 0 -70 93 c-102 134 -256 286 -330 322 -107 53 -216 37
-341 -51 -34 -23 -78 -66 -100 -94 -21 -27 -42 -49 -47 -47 -11 3 -297 371
-292 375 2 2 50 -1 107 -8 186 -21 291 -30 433 -40 77 -5 220 -14 317 -21 224
-15 281 -8 324 35 62 62 55 120 -21 163 -36 20 -54 23 -165 23 -115 0 -332
-15 -590 -40 -133 -13 -320 -29 -430 -36 -47 -3 -107 -10 -135 -16 l-50 -11
50 -17 c48 -16 56 -25 231 -250 l182 -235 -39 -77 -39 -78 -268 0 -269 0 -79
102 c-112 145 -236 266 -312 306 -53 28 -73 33 -130 33 -129 0 -217 -51 -337
-193 l-40 -47 -150 191 c-166 211 -183 234 -169 226 12 -8 384 -46 569 -58
603 -39 608 -39 661 14 62 62 55 119 -21 164 -39 23 -44 23 -240 18 -195 -5
-265 -10 -585 -40 -85 -8 -229 -20 -320 -26 -91 -6 -185 -17 -210 -24 l-45
-13 41 -11 c37 -11 57 -33 237 -263 l197 -250 -32 -62 -33 -62 -315 -2 -315
-2 -90 115 c-110 142 -232 259 -309 298 -131 66 -282 22 -415 -120 -39 -42
-75 -74 -79 -70 -20 20 -289 371 -287 374 2 2 88 -6 192 -17 103 -11 260 -25
348 -31 88 -6 215 -15 283 -20 195 -16 279 -13 327 10 45 22 75 64 75 105 0
35 -56 90 -100 99 -67 13 -301 4 -600 -23 -143 -14 -430 -39 -574 -51 -140
-12 -167 -22 -110 -40 21 -7 45 -17 52 -23 7 -5 87 -107 179 -226 91 -119 170
-221 175 -228 6 -7 -5 -39 -29 -87 l-37 -76 -266 0 c-146 0 -270 4 -276 8 -5
4 -45 52 -89 107 -107 136 -227 253 -302 293 -94 50 -187 47 -295 -10 -53 -28
-151 -119 -191 -178 -17 -24 -17 -24 -31 -5 -8 11 -80 103 -160 204 -80 101
-144 186 -141 189 2 3 53 0 112 -7 60 -6 146 -16 193 -21 47 -5 164 -14 260
-20 96 -6 228 -15 292 -20 153 -13 280 -13 315 1 42 16 82 58 89 96 8 45 -16
80 -74 105 -44 20 -59 21 -232 15 -102 -4 -232 -11 -290 -17 -180 -17 -561
-49 -660 -55 -52 -3 -120 -11 -150 -17 l-55 -11 43 -16 c39 -14 64 -42 238
-263 l195 -248 -32 -65 -33 -65 -190 0 c-105 0 -241 -3 -302 -6 l-110 -7 -84
109 c-106 137 -228 259 -305 304 -54 32 -66 35 -140 35 -69 0 -89 -4 -147 -32
-64 -30 -145 -100 -197 -167 -21 -28 -22 -29 -36 -10 -7 10 -74 98 -149 193
-74 96 -134 176 -133 177 1 1 36 -3 77 -7 302 -34 780 -70 950 -71 102 -1 151
16 180 64 42 70 9 132 -86 158 -51 14 -317 3 -612 -25 -81 -8 -241 -22 -357
-31 -227 -17 -345 -32 -345 -43 0 -4 19 -12 43 -18 40 -11 54 -26 225 -247
l182 -235 -37 -76 -37 -75 -272 0 -272 0 -69 88 c-142 182 -235 272 -337 324
-52 26 -68 30 -125 26 -117 -7 -249 -87 -326 -199 -16 -22 -32 -38 -36 -37 -4
2 -80 94 -168 206 l-162 203 43 -5 c162 -21 396 -42 618 -56 91 -6 224 -14
295 -19 132 -9 225 -2 264 19 29 15 61 68 61 101 0 59 -88 108 -195 109 -75 0
-415 -23 -592 -40 -141 -13 -316 -28 -480 -40 -183 -13 -224 -25 -149 -46 30
-8 63 -45 223 -249 104 -132 192 -246 197 -253 4 -7 -6 -37 -24 -71 l-31 -58
-82 -7 c-45 -3 -148 -6 -229 -6 l-148 0 0 -35 0 -35 339 0 339 0 28 -33 c16
-18 161 -200 323 -405 283 -358 294 -372 327 -372 24 0 34 5 34 15 0 8 -137
189 -305 403 l-305 387 237 6 c131 4 461 7 733 7 l495 1 315 -410 315 -410 35
3 c19 2 35 8 35 15 0 7 -136 188 -303 404 -167 215 -302 392 -300 394 2 1 337
5 745 9 l742 6 321 -407 c270 -342 326 -408 349 -411 70 -8 58 11 -260 413
-169 215 -308 393 -308 398 -1 4 329 7 732 7 l732 0 315 -408 c255 -329 320
-408 341 -410 14 -2 31 3 37 11 10 11 -48 91 -293 408 l-305 394 417 6 c230 3
569 7 754 8 l337 1 318 -405 c318 -404 319 -405 357 -405 23 0 37 5 37 13 -1
6 -139 188 -309 402 -169 215 -307 391 -306 392 1 2 331 3 734 3 l734 1 299
-388 c165 -213 308 -397 319 -409 14 -15 28 -19 49 -16 17 2 32 7 35 11 2 4
-135 187 -305 407 l-309 399 747 3 c661 2 748 0 762 -13 8 -9 153 -190 321
-403 296 -375 306 -387 340 -387 24 0 34 4 33 15 -1 9 -137 189 -304 400
l-303 385 254 6 c140 3 469 7 731 8 l476 1 273 -352 c150 -194 293 -379 317
-410 39 -50 50 -58 78 -58 18 0 35 4 39 10 3 5 -133 188 -303 407 l-308 398
498 3 498 2 0 35 0 35 -165 0 -164 0 -90 113 c-127 160 -242 269 -326 308 -61
29 -73 31 -132 26 -114 -11 -245 -91 -314 -191 -13 -20 -27 -35 -30 -33 -9 3
-301 378 -297 381 2 1 73 -5 158 -15 85 -10 220 -22 300 -28 80 -6 222 -16
315 -23 325 -23 393 -15 436 56 26 43 24 70 -11 109 -63 72 -116 72 -945 -3
-60 -5 -170 -14 -244 -20 -146 -11 -201 -19 -201 -29 0 -3 21 -14 48 -24 44
-16 59 -33 224 -248 l177 -231 -37 -74 -36 -74 -273 0 -272 0 -95 119 c-120
150 -228 251 -312 292 -57 28 -71 31 -128 27 -112 -9 -223 -75 -308 -182 -22
-28 -45 -51 -50 -51 -7 0 -328 397 -324 402 0 1 37 -3 81 -8 186 -21 392 -39
560 -49 99 -6 238 -15 309 -21 204 -16 275 1 309 74 23 47 21 60 -8 95 -51 60
-120 69 -395 51z"/>
</g>
</svg>
